<?xml version="1.0" standalone="no"?>
<!DOCTYPE svg PUBLIC "-//W3C//DTD SVG 1.1//EN" "http://www.w3.org/Graphics/SVG/1.1/DTD/svg11.dtd" >
<svg xmlns="http://www.w3.org/2000/svg">
<metadata>
Created by FontForge 20120731 at Mon Sep 26 09:43:33 2016
 By admin
</metadata>
<defs>
<font id="iconfont" horiz-adv-x="1024" >
  <font-face 
    font-family="iconfont"
    font-weight="500"
    font-stretch="normal"
    units-per-em="1024"
    panose-1="2 0 6 3 0 0 0 0 0 0"
    ascent="896"
    descent="-128"
    x-height="792"
    bbox="34 -89 960 857"
    underline-thickness="50"
    underline-position="-100"
    unicode-range="U+0078-E64E"
  />
<missing-glyph horiz-adv-x="374" 
d="M34 0v682h272v-682h-272zM68 34h204v614h-204v-614z" />
    <glyph glyph-name=".notdef" horiz-adv-x="374" 
d="M34 0v682h272v-682h-272zM68 34h204v614h-204v-614z" />
    <glyph glyph-name=".null" horiz-adv-x="0" 
 />
    <glyph glyph-name="nonmarkingreturn" horiz-adv-x="341" 
 />
    <glyph glyph-name="x" unicode="x" horiz-adv-x="1001" 
d="M281 543q-27 -1 -53 -1h-83q-18 0 -36.5 -6t-32.5 -18.5t-23 -32t-9 -45.5v-76h912v41q0 16 -0.5 30t-0.5 18q0 13 -5 29t-17 29.5t-31.5 22.5t-49.5 9h-133v-97h-438v97zM955 310v-52q0 -23 0.5 -52t0.5 -58t-10.5 -47.5t-26 -30t-33 -16t-31.5 -4.5q-14 -1 -29.5 -0.5
t-29.5 0.5h-32l-45 128h-439l-44 -128h-29h-34q-20 0 -45 1q-25 0 -41 9.5t-25.5 23t-13.5 29.5t-4 30v167h911zM163 247q-12 0 -21 -8.5t-9 -21.5t9 -21.5t21 -8.5q13 0 22 8.5t9 21.5t-9 21.5t-22 8.5zM316 123q-8 -26 -14 -48q-5 -19 -10.5 -37t-7.5 -25t-3 -15t1 -14.5
t9.5 -10.5t21.5 -4h37h67h81h80h64h36q23 0 34 12t2 38q-5 13 -9.5 30.5t-9.5 34.5q-5 19 -11 39h-368zM336 498v228q0 11 2.5 23t10 21.5t20.5 15.5t34 6h188q31 0 51.5 -14.5t20.5 -52.5v-227h-327z" />
    <glyph glyph-name="uniE602" unicode="&#xe602;" 
d="M512 625q-100 0 -170.5 -70.5t-70.5 -170.5t70.5 -170.5t170.5 -70.5t170.5 70.5t70.5 170.5t-70.5 170.5t-170.5 70.5zM512 212q-71 0 -121.5 50.5t-50.5 121.5t50.5 121.5t121.5 50.5t121.5 -50.5t50.5 -121.5t-50.5 -121.5t-121.5 -50.5zM512 694q14 0 24 10t10 25v69
q0 14 -10 24t-24 10t-24 -10t-10 -24v-69q0 -15 10 -25t24 -10zM512 74q-14 0 -24 -10t-10 -25v-69q0 -14 10 -24t24 -10t24 10t10 24v69q0 15 -10 25t-24 10zM780 603l49 49q10 10 10 24.5t-10 24.5t-24.5 10t-24.5 -10l-49 -49q-10 -10 -10 -24.5t10 -24.5t24.5 -10
t24.5 10zM244 165l-49 -49q-10 -10 -10 -24.5t10 -24.5t24.5 -10t24.5 10l49 49q10 10 10 24.5t-10 24.5t-24.5 10t-24.5 -10zM202 384q0 14 -10 24t-25 10h-69q-14 0 -24 -10t-10 -24t10 -24t24 -10h69q15 0 25 10t10 24zM926 418h-69q-15 0 -25 -10t-10 -24t10 -24t25 -10
h69q14 0 24 10t10 24t-10 24t-24 10zM244 603q10 -10 24.5 -10t24.5 10t10 24.5t-10 24.5l-49 49q-10 10 -24.5 10t-24.5 -10t-10 -24.5t10 -24.5zM780 165q-10 10 -24.5 10t-24.5 -10t-10 -24.5t10 -24.5l49 -49q10 -10 24.5 -10t24.5 10t10 24.5t-10 24.5z" />
    <glyph glyph-name="uniE603" unicode="&#xe603;" 
d="M773 268q-5 -52 -44.5 -88t-92.5 -36q-47 0 -85 29q-8 7 -19 5.5t-18 -10.5v0q-44 -24 -94 -24q-53 0 -99 26q-11 7 -24 2q-6 -2 -12 -6q-28 -22 -64 -22q-43 0 -73.5 30.5t-30.5 74t30.5 74t73.5 30.5q46 0 77 -34q7 -8 18 -8.5t19 7t8.5 18.5t-6.5 19q-44 47 -108 50
q19 63 72 102t119 39q6 0 17 -1q10 26 27 49q-25 5 -44 5q-91 0 -160.5 -56.5t-87.5 -145.5q-48 -15 -78 -56t-30 -93q0 -65 46 -111t111 -46q48 0 87 26q53 -26 112 -26q61 0 116 28q46 -28 100 -28q74 0 129 50.5t61 124.5q-12 -2 -21 -2q-15 0 -32 4zM580 465
q-4 -1 -14 -5q-1 -7 -6 -12q-11 -10 -24 -3q-15 -9 -24 -17q-9 -7 -9.5 -18t6.5 -19.5t18 -9t19 6.5q39 33 90 33q49 0 86.5 -30.5t48.5 -77.5q16 -6 34 -6q9 0 20 2q-10 70 -63 117t-124 48q-45 76 -128 108q-18 -20 -30 -46q62 -20 100 -71zM960 420q0 63 -45 108.5
t-108 46.5q-28 47 -75.5 74.5t-102.5 27.5q-49 0 -92.5 -22t-72.5 -61q24 -4 46 -12q48 52 119 52q39 0 73.5 -17.5t57.5 -48.5q-32 -9 -56 -30q-7 -6 -7.5 -15t5 -15.5t14.5 -7.5t16 5q31 27 73 27q46 0 79 -33t33 -79q0 -41 -26.5 -72t-65.5 -39q2 -14 2 -27q0 -6 -1 -16
q57 8 95.5 51.5t38.5 102.5zM560 448q5 5 7 12q-16 -6 -31 -15q13 -7 24 3zM825 309q-11 -2 -20 -2q-18 0 -34 6q3 -16 3 -31q0 -6 -1 -14q18 -4 32 -4q9 0 21 2q1 10 1 16q0 12 -2 27zM480 536q12 26 30 46q-22 8 -46 12q-17 -23 -27 -49q22 -2 43 -9z" />
    <glyph glyph-name="uniE604" unicode="&#xe604;" 
d="M958 342q-12 82 -74 137t-145 56q-53 90 -151 127q-25 10 -54 15t-52 5q-106 0 -188 -66.5t-104 -169.5q-55 -19 -90.5 -67t-35.5 -108q0 -77 54 -131t131 -54q55 0 101 31q63 -31 132 -31q72 0 136 33q54 -33 117 -33q88 0 152.5 59.5t71.5 145.5q1 12 1 20q0 14 -2 31z
M735 148q-55 0 -99 34q-10 8 -22.5 6.5t-20.5 -11.5q0 -1 -1 -1q-52 -28 -110 -28q-62 0 -116 31q-14 8 -28 1q-8 -1 -14 -6q-33 -26 -75 -26q-51 0 -87 36t-36 86.5t36 86.5t87 36q53 0 89 -39q9 -10 22 -10.5t22.5 8.5t10 21.5t-8.5 22.5q-51 55 -127 59q23 73 85 119
t140 46q5 0 20 -2q26 -2 51 -10q72 -23 118 -83q-5 -1 -17 -5q-18 -8 -36 -18q-17 -11 -28 -20q-10 -9 -11 -22t7.5 -22.5t21 -10.5t22.5 7q46 39 105 39q58 0 102 -36t57 -91q4 -18 4 -35q0 -9 -1 -18q-7 -61 -53 -103t-109 -42z" />
    <glyph glyph-name="uniE605" unicode="&#xe605;" 
d="M938 436h-44q-9 0 -15.5 -6.5t-6.5 -15.5t6.5 -15t15.5 -6h44q9 -1 15.5 5.5t6.5 15.5t-6.5 15.5t-15.5 6.5zM505 554q6 -7 15 -7t15.5 6.5t6.5 15.5t-6 16l-31 31q-7 6 -16 6t-15.5 -6.5t-6.5 -15.5t7 -15zM846 554l31 31q6 6 6 15t-6.5 15.5t-15.5 6.5t-15 -6l-31 -31
q-7 -7 -7 -16t6.5 -15.5t15.5 -6.5t16 7zM675 612q9 0 15.5 6t6.5 15v44q0 9 -6.5 15.5t-15.5 6.5t-15.5 -6.5t-6.5 -15.5v-43q0 -10 6.5 -16t15.5 -6zM846 275q-7 6 -16 6t-15.5 -6.5t-6.5 -15.5t7 -15l31 -31q6 -7 15 -7t15.5 6.5t6.5 15.5t-6 16zM675 524q45 0 77.5 -32
t32.5 -78q0 -40 -28 -72q12 -20 19 -42q52 46 52 114q0 64 -44.5 109t-108.5 45q-40 0 -74 -19.5t-55 -51.5q19 -15 33 -31q14 26 39.5 42t56.5 16zM776 300q-21 -19 -45 -28q3 -14 3 -23q0 -7 -1 -14q-5 -49 -42 -82.5t-88 -33.5q-44 0 -79 27q-8 6 -18.5 5t-16.5 -10h-1
q-41 -22 -88 -22q-50 0 -94 24q-10 7 -22 1q-6 -1 -11 -4q-27 -21 -61 -21q-40 0 -69 28.5t-29 69.5t29 69.5t69 28.5q43 0 72 -31q7 -8 17.5 -8.5t18 6.5t8 17.5t-6.5 18.5q-41 44 -102 47q19 59 68.5 95.5t112.5 36.5q4 0 16 -1q21 -1 41 -8q38 -12 69 -39q6 25 20 47
q-30 23 -61 35q-21 8 -44 12t-41 4q-86 0 -151.5 -53t-82.5 -136q-45 -15 -73.5 -54t-28.5 -87q0 -61 43.5 -104.5t104.5 -43.5q45 0 82 24q50 -24 106 -24q58 0 109 26q43 -26 94 -26q71 0 122.5 47.5t57.5 116.5q1 9 1 16q0 11 -2 25q-2 11 -6 26zM486 386
q-8 -6 -8.5 -16.5t6 -18.5t17 -8.5t18.5 5.5q3 3 14 10q-10 24 -11 51q-1 0 -5.5 -2.5t-7.5 -4.5q-13 -7 -23 -16zM717 313q23 9 40 29q-24 40 -64 63.5t-87 24.5q-11 18 -27 36q-13 -25 -13 -52q0 -19 7 -39q17 5 30 5q36 0 66 -18.5t48 -48.5zM551 422q-5 -2 -13 -5
l-16 -8q1 -27 11 -51q18 12 40 17q-7 20 -7 39q0 27 13 52q-14 16 -33 30q-14 -22 -20 -47q15 -14 25 -27zM717 313q10 -18 14 -35v-3v-3q24 9 45 28q-7 22 -19 42q-17 -19 -40 -29z" />
    <glyph glyph-name="uniE606" unicode="&#xe606;" 
d="M540.5 625q-99.5 0 -170.5 -70.5t-71 -170.5t71 -170.5t170.5 -70.5t170.5 70.5t71 170.5t-71 170.5t-170.5 70.5zM540.5 212q-71.5 0 -122 50.5t-50.5 121.5t50.5 121.5t122 50.5t122 -50.5t50.5 -121.5t-50.5 -121.5t-122 -50.5zM540.5 694q14.5 0 24.5 10t10 25v69
q0 14 -10 24t-24.5 10t-24.5 -10t-10 -24v-69q0 -15 10 -25t24.5 -10zM540.5 74q-14.5 0 -24.5 -10t-10 -25v-69q0 -14 10 -24t24.5 -10t24.5 10t10 24v69q0 15 -10 25t-24.5 10zM273 165l-49 -49q-10 -10 -10 -24.5t10 -24.5t24 -10t25 10l48 49q10 10 10 24.5t-10 24.5
t-24 10t-24 -10zM230 384q0 14 -10 24t-24 10h-69q-14 0 -24 -10t-10 -24t10 -24t24 -10h69q14 0 24 10t10 24zM273 603q10 -10 24 -10t24 10t10 24.5t-10 24.5l-48 49q-11 10 -25 10t-24 -10t-10 -24.5t10 -24.5zM690 625q-100 0 -170.5 -70.5t-70.5 -170.5t70.5 -170.5
t170.5 -70.5t170.5 70.5t70.5 170.5t-70.5 170.5t-170.5 70.5z" />
    <glyph glyph-name="uniE607" unicode="&#xe607;" 
d="M773 742h47v-753h-47v753zM902 -38q0 -11 -7.5 -18.5t-18.5 -7.5h-159q-11 0 -18.5 7.5t-7.5 18.5t7.5 19t18.5 8h159q11 0 18.5 -8t7.5 -19zM796 742zM749 741.5q0 19.5 14 33.5t33.5 14t33 -14t13.5 -33.5t-13.5 -33.5t-33 -14t-33.5 14t-14 33.5zM284 231
q-43 0 -67 37l-83 130q-17 28 -10 60t35 50l397 319l16 -27l-2 -13q-8 -19 7 -66.5t49 -101.5t71 -87.5t58 -33.5l10 -1l17 -26l-17 -13l-440 -216q-18 -11 -41 -11zM530 757l-349 -280q-16 -11 -20 -27q-4 -17 6 -31l83 -131q12 -19 34 -19q12 0 22 7l404 198
q-60 35 -116.5 124.5t-63.5 158.5zM755 459h-2l1 39h6q3 3 4.5 12t-1 25t-8 35.5t-18.5 46t-30 54.5q-29 45 -58 75.5t-48.5 40.5t-28.5 5q1 0 -1 -4l-36 14q7 17 17 23q38 22 90 -20.5t97 -113.5q29 -46 46.5 -91t17.5 -82t-23 -52q-11 -7 -25 -7zM552 363
q-55 32 -94.5 74.5t-57.5 77.5t-27 73t-10 52t0 24l38 -2q0 -8 0.5 -21t9 -46t24.5 -64t51.5 -68.5t84.5 -65.5zM407 294q-49 28 -84.5 66t-51 69t-23.5 64.5t-9 46.5t0 22l38 -2q0 -7 0.5 -18.5t8 -40.5t21.5 -56t45 -60t74 -57zM670 758h114v-33h-114v33z" />
    <glyph glyph-name="uniE608" unicode="&#xe608;" 
d="M663 783h49v-791h-49v791zM799 -36q0 -12 -8.5 -20t-19.5 -8h-167q-11 0 -19.5 8t-8.5 20q0 11 8.5 19.5t19.5 8.5h167q11 0 19.5 -8.5t8.5 -19.5zM687 783zM638 782.5q0 20.5 14.5 35t35 14.5t35 -14.5t14.5 -35t-14.5 -35t-35 -14.5t-35 14.5t-14.5 35zM451 25
q-18 0 -35 8l-147 68q-32 14 -43.5 46.5t2.5 63.5l168 507l30 -14l5 -12q4 -21 44 -55t101 -62q88 -40 150 -40q23 0 34 6l9 6l29 -14l-8 -20l-265 -441q-9 -21 -29.5 -34t-44.5 -13zM413 644l-149 -447q-8 -18 -2 -35.5t23 -25.5l148 -68q16 -7 33 -0.5t25 22.5l244 406
q-71 -4 -175 44q-102 47 -147 104zM780 508l-20 33q3 2 4 4q2 5 -4.5 18t-24.5 30q-43 41 -116 75q-51 23 -94.5 33.5t-66.5 8.5t-28 -13q0 1 1 -3l-38 -8q-4 18 1 29q14 28 55.5 32.5t88.5 -8.5t97 -36q79 -36 127 -82q55 -53 37 -92q-5 -13 -19 -21zM631 308
q-62 0 -116.5 16t-87 36.5t-60 47t-35.5 38t-13 19.5l34 20q5 -8 12.5 -18.5t34.5 -35.5t58.5 -43t84.5 -31t112 -10l3 -39h-27zM545 164q-55 0 -103.5 14.5t-77.5 32.5t-53 41.5t-31.5 34t-11.5 17.5l34 20q4 -7 11 -16.5t30 -31t51 -37.5t74 -27.5t98 -7.5l3 -39
q-12 -1 -24 -1zM581 721l91 79l23 -26l-91 -79z" />
    <glyph glyph-name="uniE609" unicode="&#xe609;" 
d="M773 742h47v-753h-47v753zM902 -38q0 -11 -7.5 -18.5t-18.5 -7.5h-159q-11 0 -18.5 7.5t-7.5 18.5t7.5 19t18.5 8h159q11 0 18.5 -8t7.5 -19zM796 742zM749 741.5q0 19.5 14 33.5t33.5 14t33 -14t13.5 -33.5t-13.5 -33.5t-33 -14t-33.5 14t-14 33.5zM284 231
q-43 0 -67 37l-83 130q-17 28 -10 60t35 50l397 319l16 -27l-2 -13q-8 -19 7 -66.5t49 -101.5t71 -87.5t58 -33.5l10 -1l17 -26l-17 -13l-440 -216q-18 -11 -41 -11zM530 757l-349 -280q-16 -11 -20 -27q-4 -17 6 -31l83 -131q12 -19 34 -19q12 0 22 7l404 198
q-60 35 -116.5 124.5t-63.5 158.5zM755 459h-2l1 39h6q3 3 4.5 12t-1 25t-8 35.5t-18.5 46t-30 54.5q-29 45 -58 75.5t-48.5 40.5t-28.5 5q1 0 -1 -4l-36 14q7 17 17 23q38 22 90 -20.5t97 -113.5q29 -46 46.5 -91t17.5 -82t-23 -52q-11 -7 -25 -7zM552 363
q-55 32 -94.5 74.5t-57.5 77.5t-27 73t-10 52t0 24l38 -2q0 -8 0.5 -21t9 -46t24.5 -64t51.5 -68.5t84.5 -65.5zM407 294q-49 28 -84.5 66t-51 69t-23.5 64.5t-9 46.5t0 22l38 -2q0 -7 0.5 -18.5t8 -40.5t21.5 -56t45 -60t74 -57zM670 758h114v-33h-114v33z" />
    <glyph glyph-name="uniE60A" unicode="&#xe60a;" 
d="M773 742h47v-753h-47v753zM902 -38q0 -11 -7.5 -18.5t-18.5 -7.5h-159q-11 0 -18.5 7.5t-7.5 18.5t7.5 19t18.5 8h159q11 0 18.5 -8t7.5 -19zM796 742zM749 741.5q0 19.5 14 33.5t33.5 14t33 -14t13.5 -33.5t-13.5 -33.5t-33 -14t-33.5 14t-14 33.5zM284 231
q-43 0 -67 37l-83 130q-17 28 -10 60t35 50l397 319l16 -27l-2 -13q-8 -19 7 -66.5t49 -101.5t71 -87.5t58 -33.5l10 -1l17 -26l-17 -13l-440 -216q-18 -11 -41 -11zM530 757l-349 -280q-16 -11 -20 -27q-4 -17 6 -31l83 -131q12 -19 34 -19q12 0 22 7l404 198
q-60 35 -116.5 124.5t-63.5 158.5zM755 459h-2l1 39h6q3 3 4.5 12t-1 25t-8 35.5t-18.5 46t-30 54.5q-29 45 -58 75.5t-48.5 40.5t-28.5 5q1 0 -1 -4l-36 14q7 17 17 23q38 22 90 -20.5t97 -113.5q29 -46 46.5 -91t17.5 -82t-23 -52q-11 -7 -25 -7zM552 363
q-55 32 -94.5 74.5t-57.5 77.5t-27 73t-10 52t0 24l38 -2q0 -8 0.5 -21t9 -46t24.5 -64t51.5 -68.5t84.5 -65.5zM407 294q-49 28 -84.5 66t-51 69t-23.5 64.5t-9 46.5t0 22l38 -2q0 -7 0.5 -18.5t8 -40.5t21.5 -56t45 -60t74 -57zM670 758h114v-33h-114v33z" />
    <glyph glyph-name="uniE60B" unicode="&#xe60b;" 
d="M773 742h47v-753h-47v753zM902 -38q0 -11 -7.5 -18.5t-18.5 -7.5h-159q-11 0 -18.5 7.5t-7.5 18.5t7.5 19t18.5 8h159q11 0 18.5 -8t7.5 -19zM796 742zM749 741.5q0 19.5 14 33.5t33.5 14t33 -14t13.5 -33.5t-13.5 -33.5t-33 -14t-33.5 14t-14 33.5zM284 231
q-43 0 -67 37l-83 130q-17 28 -10 60t35 50l397 319l16 -27l-2 -13q-8 -19 7 -66.5t49 -101.5t71 -87.5t58 -33.5l10 -1l17 -26l-17 -13l-440 -216q-18 -11 -41 -11zM530 757l-349 -280q-16 -11 -20 -27q-4 -17 6 -31l83 -131q12 -19 34 -19q12 0 22 7l404 198
q-60 35 -116.5 124.5t-63.5 158.5zM755 459h-2l1 39h6q3 3 4.5 12t-1 25t-8 35.5t-18.5 46t-30 54.5q-29 45 -58 75.5t-48.5 40.5t-28.5 5q1 0 -1 -4l-36 14q7 17 17 23q38 22 90 -20.5t97 -113.5q29 -46 46.5 -91t17.5 -82t-23 -52q-11 -7 -25 -7zM552 363
q-55 32 -94.5 74.5t-57.5 77.5t-27 73t-10 52t0 24l38 -2q0 -8 0.5 -21t9 -46t24.5 -64t51.5 -68.5t84.5 -65.5zM407 294q-49 28 -84.5 66t-51 69t-23.5 64.5t-9 46.5t0 22l38 -2q0 -7 0.5 -18.5t8 -40.5t21.5 -56t45 -60t74 -57zM670 758h114v-33h-114v33z" />
    <glyph glyph-name="uniE60C" unicode="&#xe60c;" 
d="M814 783h49v-791h-49v791zM950 -36q0 -12 -8 -20t-20 -8h-167q-11 0 -19.5 8t-8.5 20q0 11 8.5 19.5t19.5 8.5h167q12 0 20 -8.5t8 -19.5zM839 783zM789 782.5q0 20.5 14.5 35t35 14.5t35 -14.5t14.5 -35t-14.5 -35t-35 -14.5t-35 14.5t-14.5 35zM666 321l-511 56
q-33 0 -57 24.5t-24 58.5v163q0 34 24.5 58.5t58.5 24.5l531 58v-32l-9 -10q-17 -12 -31 -63t-14 -118t14 -117.5t31 -62.5l9 -6v-32zM628 718l-469 -52q-19 0 -32.5 -12.5t-13.5 -30.5v-163q0 -18 13 -31t31 -13l471 -51q-33 64 -33 176.5t33 176.5zM685 319q-14 0 -27 9
l21 33q4 -3 6 -3q5 0 14 12t17 35q19 56 19 136q0 57 -8.5 100.5t-20 63.5t-23.5 21q1 0 -3 -3l-23 32q16 10 28 10q23 -1 41.5 -21.5t28.5 -53.5t15 -70.5t5 -78.5q0 -87 -22 -149q-25 -73 -68 -73zM425 356q-31 59 -42 119t-7 101t17 79.5t20.5 52t13.5 21.5l32 -23
q-5 -7 -12 -19t-18 -46t-14.5 -70t7 -90t38.5 -107zM257 377q-27 52 -37 105.5t-6.5 90t15 71t18.5 46t12 18.5l32 -23q-5 -6 -10.5 -16t-15.5 -40t-12.5 -62t6.5 -79t33 -93zM756 636l106 -57l-17 -30l-105 57zM739 498l109 51l14 -32l-108 -51z" />
    <glyph glyph-name="uniE60D" unicode="&#xe60d;" 
d="M814 783h49v-791h-49v791zM950 -36q0 -12 -8 -20t-20 -8h-167q-11 0 -19.5 8t-8.5 20q0 11 8.5 19.5t19.5 8.5h167q12 0 20 -8.5t8 -19.5zM839 783zM789 782.5q0 20.5 14.5 35t35 14.5t35 -14.5t14.5 -35t-14.5 -35t-35 -14.5t-35 14.5t-14.5 35zM666 321l-511 56
q-33 0 -57 24.5t-24 58.5v163q0 34 24.5 58.5t58.5 24.5l531 58v-32l-9 -10q-17 -12 -31 -63t-14 -118t14 -117.5t31 -62.5l9 -6v-32zM628 718l-469 -52q-19 0 -32.5 -12.5t-13.5 -30.5v-163q0 -18 13 -31t31 -13l471 -51q-33 64 -33 176.5t33 176.5zM685 319q-14 0 -27 9
l21 33q4 -3 6 -3q5 0 14 12t17 35q19 56 19 136q0 57 -8.5 100.5t-20 63.5t-23.5 21q1 0 -3 -3l-23 32q16 10 28 10q23 -1 41.5 -21.5t28.5 -53.5t15 -70.5t5 -78.5q0 -87 -22 -149q-25 -73 -68 -73zM425 356q-31 59 -42 119t-7 101t17 79.5t20.5 52t13.5 21.5l32 -23
q-5 -7 -12 -19t-18 -46t-14.5 -70t7 -90t38.5 -107zM257 377q-27 52 -37 105.5t-6.5 90t15 71t18.5 46t12 18.5l32 -23q-5 -6 -10.5 -16t-15.5 -40t-12.5 -62t6.5 -79t33 -93zM756 636l106 -57l-17 -30l-105 57zM739 498l109 51l14 -32l-108 -51z" />
    <glyph glyph-name="uniE60E" unicode="&#xe60e;" 
d="M814 783h49v-791h-49v791zM950 -36q0 -12 -8 -20t-20 -8h-167q-11 0 -19.5 8t-8.5 20q0 11 8.5 19.5t19.5 8.5h167q12 0 20 -8.5t8 -19.5zM839 783zM789 782.5q0 20.5 14.5 35t35 14.5t35 -14.5t14.5 -35t-14.5 -35t-35 -14.5t-35 14.5t-14.5 35zM666 321l-511 56
q-33 0 -57 24.5t-24 58.5v163q0 34 24.5 58.5t58.5 24.5l531 58v-32l-9 -10q-17 -12 -31 -63t-14 -118t14 -117.5t31 -62.5l9 -6v-32zM628 718l-469 -52q-19 0 -32.5 -12.5t-13.5 -30.5v-163q0 -18 13 -31t31 -13l471 -51q-33 64 -33 176.5t33 176.5zM685 319q-14 0 -27 9
l21 33q4 -3 6 -3q5 0 14 12t17 35q19 56 19 136q0 57 -8.5 100.5t-20 63.5t-23.5 21q1 0 -3 -3l-23 32q16 10 28 10q23 -1 41.5 -21.5t28.5 -53.5t15 -70.5t5 -78.5q0 -87 -22 -149q-25 -73 -68 -73zM425 356q-31 59 -42 119t-7 101t17 79.5t20.5 52t13.5 21.5l32 -23
q-5 -7 -12 -19t-18 -46t-14.5 -70t7 -90t38.5 -107zM257 377q-27 52 -37 105.5t-6.5 90t15 71t18.5 46t12 18.5l32 -23q-5 -6 -10.5 -16t-15.5 -40t-12.5 -62t6.5 -79t33 -93zM756 636l106 -57l-17 -30l-105 57zM739 498l109 51l14 -32l-108 -51z" />
    <glyph glyph-name="uniE60F" unicode="&#xe60f;" 
d="M960 784q0 -11 -8 -19t-19 -8h-842q-11 0 -19 8t-8 19v21q0 11 8 19t19 8h842q11 0 19 -8t8 -19v-21zM960 647q0 -11 -8 -19t-19 -8h-710q-11 0 -18.5 8t-7.5 19v21q0 11 7.5 19t18.5 8h710q11 0 19 -8t8 -19v-21zM801 511q0 -12 -8 -20t-19 -8h-630q-11 0 -19 8t-8 20
v20q0 11 8 19t19 8h630q11 0 19 -8t8 -19v-20zM960 374q0 -12 -8 -20t-19 -8h-630q-11 0 -19 8t-8 20v20q0 12 8 20t19 8h630q11 0 19 -8t8 -20v-20zM827 237q0 -11 -7.5 -19t-18.5 -8h-365q-11 0 -19 8t-8 19v20q0 12 8 20t19 8h365q11 0 18.5 -8t7.5 -20v-20zM695 100
q0 -11 -8 -19t-19 -8h-206q-11 0 -18.5 8t-7.5 19v21q0 11 7.5 19t18.5 8h206q11 0 19 -8t8 -19v-21zM562 -37q0 -11 -8 -19t-19 -8h-79q-11 0 -19 8t-8 19v21q0 11 8 19t19 8h79q11 0 19 -8t8 -19v-21z" />
    <glyph glyph-name="uniE610" unicode="&#xe610;" 
d="M960 784q0 -11 -8 -19t-19 -8h-842q-11 0 -19 8t-8 19v21q0 11 8 19t19 8h842q11 0 19 -8t8 -19v-21zM960 647q0 -11 -8 -19t-19 -8h-710q-11 0 -18.5 8t-7.5 19v21q0 11 7.5 19t18.5 8h710q11 0 19 -8t8 -19v-21zM801 511q0 -12 -8 -20t-19 -8h-630q-11 0 -19 8t-8 20
v20q0 11 8 19t19 8h630q11 0 19 -8t8 -19v-20zM960 374q0 -12 -8 -20t-19 -8h-630q-11 0 -19 8t-8 20v20q0 12 8 20t19 8h630q11 0 19 -8t8 -20v-20zM827 237q0 -11 -7.5 -19t-18.5 -8h-365q-11 0 -19 8t-8 19v20q0 12 8 20t19 8h365q11 0 18.5 -8t7.5 -20v-20zM695 100
q0 -11 -8 -19t-19 -8h-206q-11 0 -18.5 8t-7.5 19v21q0 11 7.5 19t18.5 8h206q11 0 19 -8t8 -19v-21zM562 -37q0 -11 -8 -19t-19 -8h-79q-11 0 -19 8t-8 19v21q0 11 8 19t19 8h79q11 0 19 -8t8 -19v-21z" />
    <glyph glyph-name="uniE611" unicode="&#xe611;" 
d="M960 784q0 -11 -8 -19t-19 -8h-842q-11 0 -19 8t-8 19v21q0 11 8 19t19 8h842q11 0 19 -8t8 -19v-21zM960 647q0 -11 -8 -19t-19 -8h-710q-11 0 -18.5 8t-7.5 19v21q0 11 7.5 19t18.5 8h710q11 0 19 -8t8 -19v-21zM801 511q0 -12 -8 -20t-19 -8h-630q-11 0 -19 8t-8 20
v20q0 11 8 19t19 8h630q11 0 19 -8t8 -19v-20zM960 374q0 -12 -8 -20t-19 -8h-630q-11 0 -19 8t-8 20v20q0 12 8 20t19 8h630q11 0 19 -8t8 -20v-20zM827 237q0 -11 -7.5 -19t-18.5 -8h-365q-11 0 -19 8t-8 19v20q0 12 8 20t19 8h365q11 0 18.5 -8t7.5 -20v-20zM695 100
q0 -11 -8 -19t-19 -8h-206q-11 0 -18.5 8t-7.5 19v21q0 11 7.5 19t18.5 8h206q11 0 19 -8t8 -19v-21zM562 -37q0 -11 -8 -19t-19 -8h-79q-11 0 -19 8t-8 19v21q0 11 8 19t19 8h79q11 0 19 -8t8 -19v-21z" />
    <glyph glyph-name="uniE612" unicode="&#xe612;" 
d="M960 784q0 -11 -8 -19t-19 -8h-842q-11 0 -19 8t-8 19v21q0 11 8 19t19 8h842q11 0 19 -8t8 -19v-21zM960 647q0 -11 -8 -19t-19 -8h-710q-11 0 -18.5 8t-7.5 19v21q0 11 7.5 19t18.5 8h710q11 0 19 -8t8 -19v-21zM801 511q0 -12 -8 -20t-19 -8h-630q-11 0 -19 8t-8 20
v20q0 11 8 19t19 8h630q11 0 19 -8t8 -19v-20zM960 374q0 -12 -8 -20t-19 -8h-630q-11 0 -19 8t-8 20v20q0 12 8 20t19 8h630q11 0 19 -8t8 -20v-20zM827 237q0 -11 -7.5 -19t-18.5 -8h-365q-11 0 -19 8t-8 19v20q0 12 8 20t19 8h365q11 0 18.5 -8t7.5 -20v-20zM695 100
q0 -11 -8 -19t-19 -8h-206q-11 0 -18.5 8t-7.5 19v21q0 11 7.5 19t18.5 8h206q11 0 19 -8t8 -19v-21zM562 -37q0 -11 -8 -19t-19 -8h-79q-11 0 -19 8t-8 19v21q0 11 8 19t19 8h79q11 0 19 -8t8 -19v-21z" />
    <glyph glyph-name="uniE613" unicode="&#xe613;" 
d="M960 784q0 -11 -8 -19t-19 -8h-842q-11 0 -19 8t-8 19v21q0 11 8 19t19 8h842q11 0 19 -8t8 -19v-21zM960 647q0 -11 -8 -19t-19 -8h-710q-11 0 -18.5 8t-7.5 19v21q0 11 7.5 19t18.5 8h710q11 0 19 -8t8 -19v-21zM801 511q0 -12 -8 -20t-19 -8h-630q-11 0 -19 8t-8 20
v20q0 11 8 19t19 8h630q11 0 19 -8t8 -19v-20zM960 374q0 -12 -8 -20t-19 -8h-630q-11 0 -19 8t-8 20v20q0 12 8 20t19 8h630q11 0 19 -8t8 -20v-20zM827 237q0 -11 -7.5 -19t-18.5 -8h-365q-11 0 -19 8t-8 19v20q0 12 8 20t19 8h365q11 0 18.5 -8t7.5 -20v-20zM695 100
q0 -11 -8 -19t-19 -8h-206q-11 0 -18.5 8t-7.5 19v21q0 11 7.5 19t18.5 8h206q11 0 19 -8t8 -19v-21zM562 -37q0 -11 -8 -19t-19 -8h-79q-11 0 -19 8t-8 19v21q0 11 8 19t19 8h79q11 0 19 -8t8 -19v-21z" />
    <glyph glyph-name="uniE614" unicode="&#xe614;" 
d="M960 784q0 -11 -8 -19t-19 -8h-842q-11 0 -19 8t-8 19v21q0 11 8 19t19 8h842q11 0 19 -8t8 -19v-21zM960 647q0 -11 -8 -19t-19 -8h-710q-11 0 -18.5 8t-7.5 19v21q0 11 7.5 19t18.5 8h710q11 0 19 -8t8 -19v-21zM801 511q0 -12 -8 -20t-19 -8h-630q-11 0 -19 8t-8 20
v20q0 11 8 19t19 8h630q11 0 19 -8t8 -19v-20zM960 374q0 -12 -8 -20t-19 -8h-630q-11 0 -19 8t-8 20v20q0 12 8 20t19 8h630q11 0 19 -8t8 -20v-20zM827 237q0 -11 -7.5 -19t-18.5 -8h-365q-11 0 -19 8t-8 19v20q0 12 8 20t19 8h365q11 0 18.5 -8t7.5 -20v-20zM695 100
q0 -11 -8 -19t-19 -8h-206q-11 0 -18.5 8t-7.5 19v21q0 11 7.5 19t18.5 8h206q11 0 19 -8t8 -19v-21zM562 -37q0 -11 -8 -19t-19 -8h-79q-11 0 -19 8t-8 19v21q0 11 8 19t19 8h79q11 0 19 -8t8 -19v-21z" />
    <glyph glyph-name="uniE615" unicode="&#xe615;" 
d="M938 471h-44q-9 0 -15.5 -6.5t-6.5 -15.5t6.5 -15t15.5 -6h44q9 -1 15.5 5.5t6.5 15.5t-6.5 15.5t-15.5 6.5zM505 589q6 -7 15 -7t15.5 6.5t6.5 15.5t-6 16l-31 31q-7 6 -16 6t-15.5 -6.5t-6.5 -15.5t7 -15zM846 589l31 31q6 6 6 15t-6.5 15.5t-15.5 6.5t-15 -6l-31 -31
q-7 -7 -7 -16t6.5 -15.5t15.5 -6.5t16 7zM675 647q9 0 15.5 6t6.5 15v44q0 9 -6.5 15.5t-15.5 6.5t-15.5 -6.5t-6.5 -15.5v-43q0 -10 6.5 -16t15.5 -6zM846 310q-7 6 -16 6t-15.5 -6.5t-6.5 -15.5t7 -15l31 -31q6 -6 15 -6t15.5 6t6.5 15t-6 16zM675 559q45 0 77.5 -32
t32.5 -78q0 -40 -28 -72q12 -20 19 -42q52 46 52 114q0 64 -44.5 109t-108.5 45q-40 0 -74 -19.5t-55 -51.5q19 -15 33 -31q14 26 39.5 42t56.5 16zM486 421q-8 -6 -8.5 -16.5t6 -18.5t17 -8.5t18.5 5.5q4 3 14 10q-10 24 -11 51q-1 -1 -6 -3t-7 -3q-13 -9 -23 -17zM717 348
q23 9 40 29q-24 40 -64 63.5t-87 24.5q-11 18 -27 36q-13 -25 -13 -52q0 -19 7 -39q17 5 30 5q36 0 66 -18.5t48 -48.5zM551 457q-5 -2 -13 -5q-1 -1 -16 -8q1 -27 11 -51q18 12 40 17q-7 20 -7 39q0 27 13 52q-14 16 -33 30q-14 -22 -20 -47q15 -14 25 -27zM717 348
q10 -18 14 -35v-3v-3q24 9 45 28q-7 22 -19 42q-17 -19 -40 -29zM449 80q0 -19 -13 -32.5t-32.5 -13.5t-33 13.5t-13.5 32.5q0 25 46 94q46 -69 46 -94zM341 163q-20 7 -35 15q-10 6 -22 1q-6 -1 -11 -4q-27 -21 -61 -21q-40 0 -69 28.5t-29 69.5t29 69.5t69 28.5
q43 0 72 -31q7 -8 17.5 -8.5t18 6.5t8 17.5t-6.5 18.5q-41 44 -102 47q19 59 68.5 95.5t112.5 36.5q4 0 16 -1q21 -1 41 -8q38 -12 69 -39q6 25 20 47q-30 23 -61 35q-21 8 -44 12t-41 4q-86 0 -151.5 -53t-82.5 -136q-45 -15 -73.5 -54t-28.5 -87q0 -61 43.5 -104.5
t104.5 -43.5q45 0 82 24q13 -6 28 -11zM782 310q-1 9 -6 25q-21 -19 -45 -28q3 -14 3 -23q0 -7 -1 -14q-5 -49 -42 -82.5t-88 -33.5q-44 0 -79 27q-8 6 -18.5 5t-16.5 -10h-1q-6 -4 -28 -11l22 -47q14 6 27 12q44 -26 94 -26q71 0 122.5 47.5t57.5 117.5q1 8 1 15
q0 11 -2 26z" />
    <glyph glyph-name="uniE616" unicode="&#xe616;" 
d="M938 543h-44q-9 0 -15.5 -6.5t-6.5 -15.5t6.5 -15.5t15.5 -6.5h44q9 0 15.5 6.5t6.5 15.5t-6.5 15.5t-15.5 6.5zM505 661q6 -7 15 -7t15.5 6.5t6.5 15.5t-6 16l-31 31q-7 6 -16 6t-15.5 -6.5t-6.5 -15.5t7 -15zM846 661l31 31q6 6 6 15t-6.5 15.5t-15.5 6.5t-15 -6
l-31 -31q-7 -7 -7 -16t6.5 -15.5t15.5 -6.5t16 7zM675 718q9 0 15.5 6.5t6.5 15.5v44q0 9 -6.5 15.5t-15.5 6.5t-15.5 -6.5t-6.5 -15.5v-44q0 -9 6.5 -15.5t15.5 -6.5zM846 382q-7 6 -16 6t-15.5 -6.5t-6.5 -15.5t7 -15l31 -31q6 -7 15 -7t15.5 6.5t6.5 15.5t-6 16zM675 631
q45 0 77.5 -32t32.5 -78q0 -41 -28 -72q12 -20 19 -43q52 47 52 115q0 64 -44.5 109t-108.5 45q-40 0 -74 -19.5t-55 -52.5q19 -14 33 -30q14 26 39.5 42t56.5 16zM486 493q-8 -7 -8.5 -17t6 -18t17 -9t18.5 6q3 3 14 10q-10 24 -11 51q-1 -1 -6 -3t-7 -4q-13 -8 -23 -16z
M717 420q23 9 40 29q-24 39 -64 63t-87 24q-11 19 -27 37q-13 -25 -13 -52q0 -19 7 -39q17 4 30 4q36 0 66 -18t48 -48zM551 528q-5 -1 -13 -4q-1 -1 -16 -8q1 -27 11 -51q18 12 40 17q-7 20 -7 39q0 27 13 52q-14 16 -33 30q-14 -22 -20 -48q15 -13 25 -27zM717 420
q10 -18 14 -36v-2v-3q24 9 45 27q-7 23 -19 43q-17 -20 -40 -29zM449 181q0 -19 -13 -32.5t-32.5 -13.5t-33 13.5t-13.5 32.5q0 25 46 94q46 -69 46 -94zM227 41q0 -19 -13.5 -32.5t-32.5 -13.5t-32.5 13.5t-13.5 32.5q0 11 11.5 34.5t23.5 41.5l11 18q46 -69 46 -94zM375 8
q0 -19 -13.5 -32.5t-32.5 -13.5t-32.5 13.5t-13.5 32.5q0 11 11.5 34.5t23.5 41.5l11 18q46 -69 46 -94zM523 8q0 -19 -13.5 -32.5t-32.5 -13.5t-32.5 13.5t-13.5 32.5q0 11 11.5 34.5t23.5 41.5l11 18q46 -69 46 -94zM671 41q0 -19 -13 -32.5t-32.5 -13.5t-33 13.5
t-13.5 32.5q0 11 11.5 34.5t23.5 41.5l11 18q46 -69 46 -94zM341 235q-20 7 -35 15q-10 6 -22 1q-6 -1 -11 -5q-27 -21 -61 -21q-40 0 -69 29t-29 69.5t29 69.5t69 29q43 0 72 -32q7 -7 17.5 -7.5t18 6.5t8 17.5t-6.5 17.5q-41 45 -102 48q19 59 68.5 95.5t112.5 36.5
q4 0 16 -1q21 -2 41 -8q38 -12 69 -40q6 26 20 48q-30 23 -61 35q-20 8 -43.5 12t-41.5 4q-86 0 -151.5 -53.5t-82.5 -136.5q-45 -15 -73.5 -53.5t-28.5 -86.5q0 -62 43.5 -105.5t104.5 -43.5q45 0 82 25q13 -6 28 -11zM782 381q-1 9 -6 25q-21 -18 -45 -27q3 -14 3 -23
q0 -7 -1 -14q-5 -49 -42 -82.5t-88 -33.5q-44 0 -79 27q-8 6 -18.5 4.5t-16.5 -9.5h-1q-6 -4 -28 -11l22 -47q14 5 27 12q44 -27 94 -27q71 0 122.5 48t57.5 117q1 9 1 16q0 11 -2 25z" />
    <glyph glyph-name="uniE617" unicode="&#xe617;" 
d="M684 60q0 -21 -15.5 -36.5t-37.5 -15.5t-37.5 15.5t-15.5 36.5q0 13 13.5 40t26.5 48t13 20q53 -79 53 -108zM341 60q0 -21 -15.5 -36.5t-37.5 -15.5t-37 15t-15 37q0 29 52 108q53 -79 53 -108zM921 487q-2 11 -7 29q-7 25 -21 48q-28 45 -73.5 72t-99.5 28
q-12 21 -31 42q-16 18 -38 35q-33 26 -69 39q-24 9 -50 14t-48 5q-97 0 -172 -61t-95 -156q-51 -17 -83.5 -61t-32.5 -100q0 -70 49.5 -119.5t119.5 -49.5q51 0 94 28q15 -8 37 -15l42 48q-36 7 -65 24q-13 7 -26 1q-7 -1 -13 -5q-30 -24 -69 -24q-46 0 -79 33t-33 79.5
t33 79t79 32.5q49 0 83 -36q8 -8 19.5 -8.5t20.5 7.5t9.5 19.5t-7.5 20.5q-47 51 -117 54q21 68 78 110t128 42q6 0 19 -1q23 -2 47 -10q43 -14 78 -45q18 -16 30 -31q-6 -1 -16 -5q0 -1 -18 -9q-1 -1 -6.5 -3.5t-8.5 -4.5q-15 -9 -26 -18q-9 -8 -10 -20t7 -21t19.5 -9.5
t20.5 6.5q6 5 16 11q21 14 46 20q20 5 35 5q41 0 75.5 -21t53.5 -55q12 -21 16 -41q1 -1 1 -3v-3q3 -16 3 -26q0 -8 -1 -16q-6 -56 -48.5 -94.5t-99.5 -38.5q-51 0 -91 31q-9 7 -21 5.5t-19 -10.5v-1q-4 -2 -12.5 -5t-9.5 -3l-27 -69q40 8 73 25q49 -30 107 -30
q81 0 140 54.5t65 133.5q1 10 1 18q0 13 -2 29zM520 326q2 4 1 4.5t-4 -2.5l-151 -171q-6 -8 4 -11l61 -17q9 -3 6 -12l-51 -143q-1 -4 0 -4.5t4 2.5l165 181q7 8 -3 11l-76 23q-10 3 -6 12z" />
    <glyph glyph-name="uniE618" unicode="&#xe618;" 
d="M695 60q0 -21 -15.5 -36.5t-37 -15.5t-37 15.5t-15.5 36.5q0 13 13 40t26 48t13 20q53 -79 53 -108zM852 124q0 -21 -15.5 -36.5t-37.5 -15.5t-37.5 15.5t-15.5 36.5q0 13 13.5 40t26.5 48t13 20q53 -79 53 -108zM353 60q0 -21 -15.5 -36.5t-37 -15.5t-37 15.5
t-15.5 36.5q0 13 13 40t26.5 48t13.5 20q52 -79 52 -108zM200 124q0 -21 -15.5 -36.5t-37 -15.5t-37 15.5t-15.5 36.5q0 13 13 40t26.5 48t13.5 20q52 -79 52 -108zM927 487q-2 11 -7 29q-8 25 -22 48q-27 45 -72.5 72t-99.5 28q-13 21 -31 42q-16 18 -38 35q-34 26 -70 39
q-23 9 -49.5 14t-47.5 5q-98 0 -173 -61t-95 -156q-51 -17 -83.5 -61t-32.5 -100q0 -70 50 -119.5t120 -49.5q51 0 93 28q16 -8 37 -15l43 48q-37 7 -66 24q-12 7 -25 1q-8 -1 -13 -5q-31 -24 -69 -24q-47 0 -80 33t-33 79.5t33 79t80 32.5q49 0 82 -36q8 -8 20 -8.5
t20.5 7.5t9 19.5t-7.5 20.5q-47 51 -116 54q21 68 77.5 110t128.5 42q5 0 18 -1q24 -2 47 -10q44 -14 79 -45q18 -16 29 -31q-5 -1 -15 -5q-1 -1 -18 -9q-1 -1 -6.5 -3.5t-8.5 -4.5q-15 -9 -26 -18q-9 -8 -10 -20t6.5 -21t19.5 -9.5t21 6.5q5 5 16 11q21 14 46 20q19 5 35 5
q41 0 75 -21t54 -55q12 -21 16 -41q0 -1 0.5 -3t0.5 -3q3 -16 3 -26q0 -8 -1 -16q-6 -56 -48.5 -94.5t-99.5 -38.5q-51 0 -91 31q-10 7 -21.5 5.5t-18.5 -10.5v-1h-1q-4 -2 -12 -5t-10 -3l-27 -69q40 8 73 25q50 -30 108 -30q80 0 139 54.5t66 133.5q1 10 1 18q0 13 -2 29z
M533 326q1 4 0 4.5t-3 -2.5l-151 -171q-7 -8 3 -11l61 -17q10 -3 7 -12l-51 -143q-2 -4 -1 -4.5t4 2.5l166 181q7 8 -3 11l-76 23q-10 3 -6 12z" />
    <glyph glyph-name="uniE619" unicode="&#xe619;" 
d="M921 496q-2 11 -7 29q-7 26 -21 49q-28 45 -73.5 72t-99.5 28q-12 20 -31 41q-16 18 -38 35q-33 26 -69 40q-23 9 -50 14q-26 4 -48 4q-97 0 -172 -61t-95 -156q-51 -17 -83.5 -61t-32.5 -99q0 -70 49.5 -120t119.5 -50q51 0 94 28q57 -28 120 -28q67 0 126 31
q49 -31 107 -31q81 0 140 54.5t65 134.5q1 10 1 17q0 13 -2 29zM865 452q-6 -57 -48.5 -95.5t-99.5 -38.5q-51 0 -91 31q-9 8 -21 6.5t-19 -11.5q-48 -26 -102 -26q-57 0 -106 28q-13 7 -26 2q-7 -1 -13 -6q-30 -24 -69 -24q-46 0 -79 33t-33 79.5t33 79.5t79 33
q49 0 83 -36q8 -9 19.5 -9.5t20.5 7.5t9.5 20t-7.5 21q-47 51 -117 54q21 67 78 109t128 42q6 0 19 -1q23 -2 47 -9q43 -14 79 -46q17 -15 29 -30q-6 -2 -16 -6l-18 -9q-1 0 -6.5 -3t-8.5 -4q-15 -9 -26 -19q-9 -7 -10 -19t7 -21t19.5 -10t20.5 7q6 4 16 11q21 14 46 20
q20 4 35 4q41 0 75.5 -20.5t53.5 -55.5q12 -20 16 -40q1 -1 1 -4v-3q3 -16 3 -26q0 -7 -1 -15zM512 139zM465 139.5q0 19.5 13.5 33.5t33.5 14t33.5 -14t13.5 -33.5t-13.5 -33.5t-33.5 -14t-33.5 14t-13.5 33.5zM398 7zM351 7q0 20 13.5 33.5t33 13.5t33.5 -13.5t14 -33.5
t-14 -33.5t-33.5 -13.5t-33 13.5t-13.5 33.5zM641 7zM593 7q0 20 14 33.5t33.5 13.5t33.5 -13.5t14 -33.5t-14 -33.5t-33.5 -13.5t-33.5 13.5t-14 33.5zM725 168zM678 168.5q0 19.5 14 33.5t33.5 14t33 -14t13.5 -33.5t-13.5 -33.5t-33 -14t-33.5 14t-14 33.5zM299 168z
M252 168.5q0 19.5 13.5 33.5t33 14t33.5 -14t14 -33.5t-14 -33.5t-33.5 -14t-33 14t-13.5 33.5z" />
    <glyph glyph-name="uniE61A" unicode="&#xe61a;" 
d="M565 50q0 -22 -15.5 -37.5t-37.5 -15.5t-37.5 15.5t-15.5 37.5q0 12 13.5 39t26.5 48t13 20q53 -78 53 -107zM921 459q-2 11 -7 29q-7 25 -21 49q-28 44 -73.5 71t-99.5 28q-12 21 -31 42q-16 18 -38 35q-33 26 -69 40q-23 8 -50 13q-26 5 -48 5q-97 0 -172 -61t-95 -156
q-51 -17 -83.5 -61t-32.5 -100q0 -70 49.5 -119.5t119.5 -49.5q51 0 94 28q57 -28 120 -28q67 0 126 30q49 -30 107 -30q81 0 140 54.5t65 133.5q1 10 1 18q0 13 -2 29zM865 414q-6 -56 -48.5 -94.5t-99.5 -38.5q-51 0 -91 31q-9 7 -21 5.5t-19 -10.5v-1q-48 -25 -102 -25
q-57 0 -106 28q-13 7 -26 1q-7 -1 -13 -5q-30 -24 -69 -24q-46 0 -79 33t-33 79.5t33 79.5t79 33q49 0 83 -36q8 -9 19.5 -9.5t20.5 7.5t9.5 20t-7.5 20q-47 51 -117 55q21 67 78 109t128 42q6 0 19 -1q24 -2 47 -10q43 -13 79 -45q17 -16 29 -31q-6 -1 -16 -5l-18 -9
q-1 -1 -6.5 -3.5t-8.5 -4.5q-15 -9 -26 -18q-9 -8 -10 -19.5t7 -20.5t19.5 -10t20.5 6q6 5 16 12q21 13 46 19q20 5 35 5q41 0 75.5 -20.5t53.5 -55.5q12 -20 16 -40q1 -1 1 -3v-4q3 -16 3 -26q0 -7 -1 -16z" />
    <glyph glyph-name="uniE61B" unicode="&#xe61b;" 
d="M565 10q0 -22 -15.5 -37.5t-37.5 -15.5t-37.5 15.5t-15.5 37.5q0 12 13.5 39t26.5 48t13 20q53 -78 53 -107zM357 90q0 -22 -15.5 -37.5t-37 -15.5t-37 15.5t-15.5 37.5q0 13 13 39.5t26 47.5l13 20q53 -78 53 -107zM772 90q0 -22 -15.5 -37.5t-37 -15.5t-37 15.5
t-15.5 37.5q0 12 13 39t26.5 48t13.5 20q52 -78 52 -107zM921 499q-2 11 -7 29q-7 25 -21 49q-28 44 -73.5 71t-99.5 28q-12 21 -31 42q-16 18 -38 35q-33 26 -69 40q-23 8 -50 13q-26 5 -48 5q-97 0 -172 -61t-95 -156q-51 -17 -83.5 -61t-32.5 -100q0 -70 49.5 -119.5
t119.5 -49.5q51 0 94 28q57 -28 120 -28q67 0 126 30q49 -30 107 -30q81 0 140 54.5t65 133.5q1 10 1 18q0 13 -2 29zM865 454q-6 -56 -48.5 -94.5t-99.5 -38.5q-51 0 -91 31q-9 7 -21 5.5t-19 -10.5v-1q-48 -25 -102 -25q-57 0 -106 28q-13 7 -26 1q-7 -1 -13 -5
q-30 -24 -69 -24q-46 0 -79 33t-33 79.5t33 79.5t79 33q49 0 83 -36q8 -9 19.5 -9.5t20.5 7.5t9.5 20t-7.5 20q-47 51 -117 55q21 67 78 109t128 42q6 0 19 -1q24 -2 47 -10q43 -13 79 -45q17 -16 29 -31q-6 -1 -16 -5l-18 -9q-1 -1 -6.5 -3.5t-8.5 -4.5q-15 -9 -26 -18
q-9 -8 -10 -19.5t7 -20.5t19.5 -10t20.5 6q6 5 16 12q21 13 46 19q20 5 35 5q41 0 75.5 -20.5t53.5 -55.5q12 -20 16 -40q1 -1 1 -3v-4q3 -16 3 -26q0 -7 -1 -16z" />
    <glyph glyph-name="uniE61C" unicode="&#xe61c;" 
d="M565 10q0 -22 -15.5 -37.5t-37.5 -15.5t-37.5 15.5t-15.5 37.5q0 13 13.5 39.5t26.5 47.5l13 20q53 -78 53 -107zM421 90q0 -22 -15.5 -37.5t-37 -15.5t-37 15.5t-15.5 37.5q0 13 13 39.5t26 47.5l13 20q53 -78 53 -107zM267 116q0 -22 -15.5 -37.5t-37 -15.5t-37 15.5
t-15.5 37.5q0 13 13 40t26 47l13 20q53 -78 53 -107zM708 90q0 -22 -15.5 -37.5t-37 -15.5t-37 15.5t-15.5 37.5q0 13 13 39.5t26 47.5l14 20q52 -78 52 -107zM862 116q0 -22 -15.5 -37.5t-37 -15.5t-37 15.5t-15.5 37.5q0 13 13 40t26 47l14 20q52 -78 52 -107zM921 499
q-2 11 -7 29q-7 25 -21 49q-28 44 -73.5 71t-99.5 28q-12 21 -31 42q-16 18 -38 35q-33 26 -69 40q-23 8 -50 13q-26 5 -48 5q-97 0 -172 -61t-95 -156q-51 -17 -83.5 -61t-32.5 -100q0 -70 49.5 -119.5t119.5 -49.5q51 0 94 28q57 -28 120 -28q67 0 126 30q49 -30 107 -30
q81 0 140 54.5t65 133.5q1 10 1 18q0 13 -2 29zM865 454q-6 -56 -48.5 -94.5t-99.5 -38.5q-51 0 -91 31q-9 7 -21 5.5t-19 -10.5v-1q-48 -25 -102 -25q-57 0 -106 28q-13 7 -26 1q-7 -1 -13 -5q-30 -24 -69 -24q-46 0 -79 33t-33 79.5t33 79.5t79 33q49 0 83 -36
q8 -9 19.5 -9.5t20.5 7.5t9.5 20t-7.5 20q-47 51 -117 55q21 67 78 109t128 42q6 0 19 -1q24 -2 47 -10q43 -13 79 -45q17 -16 29 -31q-6 -1 -16 -5l-18 -9q-1 -1 -6.5 -3.5t-8.5 -4.5q-15 -9 -26 -18q-9 -8 -10 -19.5t7 -20.5t19.5 -10t20.5 6q6 5 16 12q21 13 46 19
q20 5 35 5q41 0 75.5 -20.5t53.5 -55.5q12 -20 16 -40q1 -1 1 -3v-4q3 -16 3 -26q0 -7 -1 -16z" />
    <glyph glyph-name="uniE61D" unicode="&#xe61d;" 
d="M921 492q-2 11 -7 29q-7 26 -21 49q-28 45 -73.5 72t-99.5 27q-12 21 -31 42q-16 18 -38 35q-34 26 -69 40q-23 9 -50 13q-26 5 -48 5q-97 0 -172 -61t-95 -156q-51 -17 -83.5 -61t-32.5 -99q0 -71 49.5 -120.5t119.5 -49.5q51 0 94 28q57 -28 120 -28q67 0 126 30
q49 -30 107 -30q81 0 140 54.5t65 133.5q1 11 1 18q0 13 -2 29zM865 447q-6 -56 -48.5 -94.5t-99.5 -38.5q-51 0 -91 31q-9 8 -21 6.5t-19 -11.5v-1q-48 -25 -102 -25q-57 0 -106 28q-13 7 -26 2q-7 -2 -13 -6q-30 -24 -69 -24q-46 0 -79 33t-33 79.5t33 79.5t79 33
q49 0 83 -36q8 -9 19.5 -9.5t20.5 7.5t9.5 20t-7.5 21q-47 50 -117 54q21 67 78 109t128 42q6 0 19 -1q23 -2 47 -9q43 -14 78 -46q18 -16 30 -31q-6 -1 -16 -5q-1 -1 -18 -9q-1 -1 -6.5 -3.5t-8.5 -3.5q-15 -10 -26 -19q-9 -8 -10 -19.5t7 -20.5t19.5 -10t20.5 7q6 4 16 11
q21 13 46 20q20 4 35 4q41 0 75.5 -20.5t53.5 -55.5q12 -20 16 -40q1 -1 1 -4v-3q3 -16 3 -26q0 -7 -1 -16zM256 46q0 -8 -4.5 -13t-11.5 -5t-11.5 5t-4.5 13v142q0 7 4.5 12.5t11.5 5.5t11.5 -5.5t4.5 -12.5v-142zM352 26q0 -8 -4.5 -13t-11.5 -5t-11.5 5t-4.5 13v142
q0 7 4.5 12.5t11.5 5.5t11.5 -5.5t4.5 -12.5v-142zM448 3q0 -7 -4.5 -12.5t-11.5 -5.5t-11.5 5.5t-4.5 12.5v142q0 8 4.5 13t11.5 5t11.5 -5t4.5 -13v-142zM544 -18q0 -8 -4.5 -13t-11.5 -5t-11.5 5t-4.5 13v142q0 7 4.5 12.5t11.5 5.5t11.5 -5.5t4.5 -12.5v-142zM640 3
q0 -7 -4.5 -12.5t-11.5 -5.5t-11.5 5.5t-4.5 12.5v142q0 8 4.5 13t11.5 5t11.5 -5t4.5 -13v-142zM736 26q0 -8 -4.5 -13t-11.5 -5t-11.5 5t-4.5 13v142q0 7 4.5 12.5t11.5 5.5t11.5 -5.5t4.5 -12.5v-142zM832 46q0 -8 -4.5 -13t-11.5 -5t-11.5 5t-4.5 13v142q0 7 4.5 12.5
t11.5 5.5t11.5 -5.5t4.5 -12.5v-142z" />
    <glyph glyph-name="uniE61E" unicode="&#xe61e;" 
d="M535 29q0 -9 -6.5 -16t-16.5 -7t-16.5 7t-6.5 16q0 13 23 47q23 -34 23 -47zM428 64q0 -9 -7 -16t-16.5 -7t-16 7t-6.5 16q0 6 5.5 18t11.5 20l6 9q23 -34 23 -47zM316 76q0 -10 -7 -16.5t-16.5 -6.5t-16 6.5t-6.5 16.5q0 6 5.5 17.5t11.5 20.5l6 9q23 -34 23 -47z
M642 64q0 -9 -6.5 -16t-16 -7t-16.5 7t-7 16q0 6 6 18t12 20l5 9q23 -34 23 -47zM754 76q0 -10 -6.5 -16.5t-16 -6.5t-16.5 6.5t-7 16.5q0 6 6 17.5t12 20.5l5 9q23 -34 23 -47zM921 450q-2 11 -7 29q-7 25 -21 48q-28 45 -73.5 72t-99.5 28q-12 21 -31 42q-16 18 -38 35
q-33 26 -69 40q-23 8 -50 13q-26 5 -48 5q-97 0 -172 -61t-95 -156q-51 -17 -83.5 -61t-32.5 -100q0 -70 49.5 -119.5t119.5 -49.5q51 0 94 28q57 -28 120 -28q67 0 126 30q49 -30 107 -30q81 0 140 54.5t65 133.5q1 10 1 18q0 13 -2 29zM865 405q-6 -56 -48.5 -94.5
t-99.5 -38.5q-51 0 -91 31q-9 7 -21 5.5t-19 -10.5v-1q-48 -25 -102 -25q-57 0 -106 28q-13 7 -26 1q-7 -1 -13 -5q-30 -24 -69 -24q-46 0 -79 33t-33 79.5t33 79.5t79 33q49 0 83 -37q8 -8 19.5 -8.5t20.5 7.5t9.5 20t-7.5 20q-47 51 -117 55q21 67 78 109t128 42
q6 0 19 -1q24 -2 47 -10q43 -13 78 -45q18 -16 30 -31q-6 -1 -16 -5l-18 -9q-1 -1 -6.5 -3.5t-8.5 -4.5q-15 -9 -26 -18q-9 -8 -10 -19.5t7 -20.5t19.5 -10t20.5 6q6 5 16 12q21 13 46 19q20 5 35 5q41 0 75.5 -20.5t53.5 -55.5q12 -20 16 -40q1 -1 1 -4v-3q3 -16 3 -26
q0 -7 -1 -16z" />
    <glyph glyph-name="uniE61F" unicode="&#xe61f;" 
d="M263 123q0 -22 -15.5 -37.5t-37.5 -15.5t-37 15.5t-15 37.5q0 13 13 40t26 47l13 20q53 -78 53 -107zM464 123q0 -22 -15.5 -37.5t-37 -15.5t-37 15.5t-15.5 37.5q0 13 13 40t26 47l13 20q53 -78 53 -107zM665 123q0 -22 -15.5 -37.5t-37 -15.5t-37 15.5t-15.5 37.5
q0 13 13 40t26 47l14 20q52 -78 52 -107zM866 123q0 -22 -15.5 -37.5t-37 -15.5t-37 15.5t-15.5 37.5q0 13 13 40t27 47l13 20q52 -78 52 -107zM363 -24q0 -22 -15 -37t-37 -15t-37.5 15.5t-15.5 36.5q0 13 13.5 40t26.5 47l13 21q52 -79 52 -108zM565 -24q0 -22 -15.5 -37
t-37.5 -15t-37.5 15.5t-15.5 36.5q0 13 13.5 39.5t26.5 48t13 20.5q53 -79 53 -108zM766 -24q0 -22 -15.5 -37t-37.5 -15t-37 15.5t-15 36.5q0 13 13 40t26 47l13 21q53 -79 53 -108zM921 532q-2 11 -7 29q-7 26 -21 49q-28 45 -73.5 72t-99.5 28q-12 20 -31 41
q-16 18 -38 35q-33 26 -69 40q-23 9 -50 14q-26 4 -48 4q-97 0 -172 -61t-95 -156q-51 -17 -83.5 -61t-32.5 -99q0 -70 49.5 -120t119.5 -50q51 0 94 28q57 -28 120 -28q67 0 126 31q49 -31 107 -31q81 0 140 54.5t65 134.5q1 10 1 17q0 13 -2 29zM865 488
q-6 -57 -48.5 -95.5t-99.5 -38.5q-51 0 -91 31q-9 8 -21 6.5t-19 -11.5v0q-48 -26 -102 -26q-57 0 -106 28q-13 8 -26 2q-7 -1 -13 -6q-30 -24 -69 -24q-46 0 -79 33t-33 79.5t33 79.5t79 33q49 0 83 -36q8 -9 19.5 -9.5t20.5 7.5t9.5 20t-7.5 21q-47 51 -117 54
q21 67 78 109t128 42q6 0 19 -1q23 -2 47 -9q43 -14 79 -46q17 -15 29 -30q-6 -2 -16 -6l-18 -9q-1 0 -6.5 -3t-8.5 -4q-15 -9 -26 -19q-9 -7 -10 -19t7 -21t19.5 -10t20.5 7q6 4 16 11q21 14 46 20q20 4 35 4q41 0 75.5 -20.5t53.5 -55.5q12 -20 16 -40q1 -1 1 -4v-3
q3 -16 3 -26q0 -7 -1 -15z" />
    <glyph glyph-name="uniE62E" unicode="&#xe62e;" 
d="M359 49q0 -22 -15 -37t-37 -15t-37.5 15.5t-15.5 36.5q0 13 13.5 40t26.5 47l13 21q52 -79 52 -108zM565 10q0 -22 -15.5 -37.5t-37.5 -15.5t-37.5 15.5t-15.5 37.5q0 13 13.5 39.5t26.5 47.5t13 20q53 -78 53 -107zM772 49q0 -22 -15.5 -37t-37 -15t-37 15.5t-15.5 36.5
q0 13 13 40t26 47l14 21q52 -79 52 -108zM921 499q-2 11 -7 28q-7 26 -21 49q-28 45 -73.5 72t-99.5 28q-12 20 -31 42q-16 18 -38 34q-33 27 -69 40q-23 9 -50 14q-26 5 -48 5q-97 0 -172 -61t-95 -156q-51 -17 -83.5 -61.5t-32.5 -99.5q0 -70 49.5 -120t119.5 -50
q51 0 94 29q57 -29 120 -29q67 0 126 31q49 -31 107 -31q81 0 140 54.5t65 134.5q1 10 1 18q0 12 -2 29zM865 454q-6 -56 -48.5 -94.5t-99.5 -38.5q-51 0 -91 31q-9 7 -21 5.5t-19 -10.5v-1q-48 -25 -102 -25q-57 0 -106 28q-13 7 -26 1q-7 -1 -13 -5q-30 -24 -69 -24
q-46 0 -79 33t-33 79t33 79t79 33q49 0 83 -36q8 -9 19.5 -9t20.5 8t9.5 19.5t-7.5 20.5q-47 51 -117 54q21 68 78 110t128 42q6 0 19 -2q23 -2 47 -9q43 -14 79 -45q17 -16 29 -31q-6 -2 -16 -5q-1 -1 -18 -9q-1 -1 -6.5 -3.5t-8.5 -4.5q-15 -9 -26 -18q-9 -8 -10 -20
t7 -21t19.5 -10t20.5 7q6 5 16 11q21 14 46 20q20 5 35 5q41 0 75.5 -21t53.5 -55q12 -21 16 -41q1 -1 1 -3v-3q3 -17 3 -26q0 -8 -1 -16zM221 56q0 -8 -5 -13.5t-11 -5.5q-7 0 -11.5 5.5t-4.5 13.5v141q0 8 4.5 13.5t11.5 5.5q6 0 11 -5.5t5 -13.5v-141zM426 6q0 -8 -5 -13
t-11 -5q-7 0 -11.5 5t-4.5 13v142q0 7 4.5 12.5t11.5 5.5q6 0 11 -5.5t5 -12.5v-142zM630 6q0 -8 -4.5 -13t-11.5 -5q-6 0 -11 5t-5 13v142q0 7 5 12.5t11 5.5q7 0 11.5 -5.5t4.5 -12.5v-142zM835 56q0 -8 -4.5 -13.5t-11.5 -5.5q-6 0 -11 5.5t-5 13.5v141q0 8 5 13.5
t11 5.5q7 0 11.5 -5.5t4.5 -13.5v-141z" />
    <glyph glyph-name="uniE62F" unicode="&#xe62f;" 
d="M921 492q-2 11 -7 29q-7 26 -21 49q-28 45 -73.5 72t-99.5 27q-12 21 -31 42q-16 18 -38 35q-34 26 -69 40q-23 9 -50 13q-26 5 -48 5q-97 0 -172 -61t-95 -156q-51 -17 -83.5 -61t-32.5 -99q0 -71 49.5 -120.5t119.5 -49.5q51 0 94 28q57 -28 120 -28q67 0 126 30
q49 -30 107 -30q81 0 140 54.5t65 133.5q1 11 1 18q0 13 -2 29zM865 447q-6 -56 -48.5 -94.5t-99.5 -38.5q-51 0 -91 31q-9 8 -21 6.5t-19 -11.5v-1q-48 -25 -102 -25q-57 0 -106 28q-13 7 -26 2q-7 -2 -13 -6q-30 -24 -69 -24q-46 0 -79 33t-33 79.5t33 79.5t79 33
q49 0 83 -36q8 -9 19.5 -9.5t20.5 7.5t9.5 20t-7.5 21q-47 50 -117 54q21 67 78 109t128 42q6 0 19 -1q23 -2 47 -9q43 -14 78 -46q18 -16 30 -31q-6 -1 -16 -5q-1 -1 -18 -9q-1 -1 -6.5 -3.5t-8.5 -3.5q-15 -10 -26 -19q-9 -8 -10 -19.5t7 -20.5t19.5 -10t20.5 7q6 4 16 11
q21 13 46 20q20 4 35 4q41 0 75.5 -20.5t53.5 -55.5q12 -20 16 -40q1 -1 1 -4v-3q3 -16 3 -26q0 -7 -1 -16zM256 46q0 -8 -4.5 -13t-11.5 -5t-11.5 5t-4.5 13v142q0 7 4.5 12.5t11.5 5.5t11.5 -5.5t4.5 -12.5v-142zM352 26q0 -8 -4.5 -13t-11.5 -5t-11.5 5t-4.5 13v142
q0 7 4.5 12.5t11.5 5.5t11.5 -5.5t4.5 -12.5v-142zM448 3q0 -7 -4.5 -12.5t-11.5 -5.5t-11.5 5.5t-4.5 12.5v142q0 8 4.5 13t11.5 5t11.5 -5t4.5 -13v-142zM544 -18q0 -8 -4.5 -13t-11.5 -5t-11.5 5t-4.5 13v142q0 7 4.5 12.5t11.5 5.5t11.5 -5.5t4.5 -12.5v-142zM640 3
q0 -7 -4.5 -12.5t-11.5 -5.5t-11.5 5.5t-4.5 12.5v142q0 8 4.5 13t11.5 5t11.5 -5t4.5 -13v-142zM736 26q0 -8 -4.5 -13t-11.5 -5t-11.5 5t-4.5 13v142q0 7 4.5 12.5t11.5 5.5t11.5 -5.5t4.5 -12.5v-142zM832 46q0 -8 -4.5 -13t-11.5 -5t-11.5 5t-4.5 13v142q0 7 4.5 12.5
t11.5 5.5t11.5 -5.5t4.5 -12.5v-142z" />
    <glyph glyph-name="uniE630" unicode="&#xe630;" 
d="M921 545q-2 11 -7 29q-7 25 -21 48q-28 45 -73.5 72t-99.5 28q-12 20 -31 42q-16 18 -38 34q-34 27 -69 40q-23 9 -50 14t-48 5q-97 0 -172 -61t-95 -156q-51 -17 -83.5 -61.5t-32.5 -99.5q0 -70 49.5 -119.5t119.5 -49.5q51 0 94 28q57 -28 120 -28q67 0 126 30
q49 -30 107 -30q81 0 140 54.5t65 133.5q1 10 1 18q0 12 -2 29zM865 500q-6 -56 -48.5 -94.5t-99.5 -38.5q-51 0 -91 31q-9 7 -21 5.5t-19 -10.5v-1q-48 -25 -102 -25q-57 0 -106 28q-13 7 -26 1q-7 -1 -13 -5q-30 -24 -69 -24q-46 0 -79 33t-33 79t33 79t79 33q49 0 83 -36
q8 -9 19.5 -9t20.5 8t9.5 19.5t-7.5 20.5q-47 51 -117 54q21 67 78 109t128 42q6 0 19 -1q23 -2 47 -9q43 -14 79 -45q17 -16 29 -31q-6 -2 -16 -5q-2 -1 -18 -10q-1 0 -6.5 -2.5t-8.5 -4.5q-15 -9 -26 -18q-9 -8 -10 -20t7 -21t19.5 -10t20.5 7q6 5 16 11q21 14 46 20
q20 5 35 5q41 0 75.5 -21t53.5 -55q12 -21 16 -41q1 -1 1 -3v-3q3 -17 3 -26q0 -8 -1 -16zM150 183l52 79l52 -79l-52 -80zM305 103l52 80l52 -80l-52 -79zM460 -9l52 79l52 -79l-52 -80zM615 103l52 80l52 -80l-52 -79zM770 183l52 79l52 -79l-52 -80z" />
    <glyph glyph-name="uniE631" unicode="&#xe631;" 
d="M905 469q-2 11 -7 29q-8 25 -22 48q-27 45 -72.5 72t-99.5 28q-13 20 -31 42q-16 18 -38 34q-34 27 -70 40q-23 9 -49 14q-27 5 -48 5q-98 0 -173 -61t-95 -156q-51 -17 -83.5 -61.5t-32.5 -99.5q0 -70 50 -119.5t120 -49.5q51 0 93 28q57 -28 121 -28q66 0 125 30
q50 -30 108 -30q80 0 139 54.5t66 133.5q1 10 1 18q0 12 -2 29zM849 424q-6 -56 -48.5 -94.5t-99.5 -38.5q-51 0 -91 31q-10 7 -21.5 5.5t-18.5 -10.5l-1 -1q-47 -25 -101 -25q-57 0 -107 28q-12 7 -25 1q-7 -1 -13 -5q-30 -24 -69 -24q-47 0 -79.5 33t-32.5 79t32.5 79
t79.5 33q49 0 82 -36q8 -8 20 -8.5t20.5 7.5t9 19.5t-7.5 20.5q-47 51 -116 54q21 68 77.5 110t128.5 42q5 0 18 -2q24 -1 47 -9q44 -14 79 -45q18 -16 29 -31q-5 -2 -15 -5l-18 -9q-1 -1 -6.5 -3.5t-8.5 -4.5q-15 -9 -26 -18q-9 -8 -10 -20t6.5 -21t19.5 -10t21 7
q5 4 16 11q21 14 46 20q19 5 35 5q41 0 75 -21t54 -55q12 -21 16 -41q0 -1 0.5 -3t0.5 -3q3 -16 3 -26q0 -8 -1 -16zM553 50l-26 14l26 15q7 4 9.5 11t-0.5 12.5t-10.5 6.5t-14.5 -3l-26 -14v29q0 8 -4.5 14t-11 6t-11 -6t-4.5 -14v-29l-25 14q-8 4 -15.5 3t-10.5 -6.5
t-0.5 -12.5t10.5 -11l25 -15l-25 -14q-8 -5 -10.5 -12t0.5 -12.5t10.5 -6.5t15.5 3l25 15v-29q0 -9 4.5 -15t11 -6t11 6t4.5 15v29l26 -15q7 -4 14.5 -3t10.5 6.5t0.5 12.5t-9.5 12z" />
    <glyph glyph-name="uniE632" unicode="&#xe632;" 
d="M921 507q-2 11 -7 29q-7 26 -21 49q-28 45 -73.5 72t-99.5 27q-12 21 -31 42q-16 18 -38 35q-33 26 -69 40q-23 9 -50 13q-26 5 -48 5q-97 0 -172 -61t-95 -156q-51 -17 -83.5 -61t-32.5 -100q0 -70 49.5 -119.5t119.5 -49.5q51 0 94 28q57 -28 120 -28q67 0 126 30
q49 -30 107 -30q81 0 140 54.5t65 133.5q1 11 1 18q0 13 -2 29zM865 462q-6 -56 -48.5 -94.5t-99.5 -38.5q-51 0 -91 31q-9 7 -21 5.5t-19 -10.5v-1q-48 -25 -102 -25q-57 0 -106 28q-13 7 -26 2q-7 -2 -13 -6q-30 -24 -69 -24q-46 0 -79 33t-33 79.5t33 79.5t79 33
q49 0 83 -36q8 -9 19.5 -9.5t20.5 7.5t9.5 20t-7.5 20q-47 51 -117 55q21 67 78 109t128 42q6 0 19 -1q24 -2 47 -9q43 -14 79 -46q17 -16 29 -31q-6 -1 -16 -5l-18 -9q-1 -1 -6.5 -3.5t-8.5 -3.5q-15 -10 -26 -19q-9 -8 -10 -19.5t7 -20.5t19.5 -10t20.5 7q5 4 16 11
q21 14 46 20q20 4 35 4q41 0 75.5 -20.5t53.5 -55.5q12 -20 16 -40q1 -1 1 -3v-4q3 -16 3 -26q0 -7 -1 -16zM569 11l-25 15l25 14q7 4 10 11t-0.5 13t-11 7t-14.5 -3l-25 -15v29q0 9 -4.5 14.5t-11.5 5.5t-11.5 -5.5t-4.5 -14.5v-29l-25 15q-7 4 -14.5 3t-11 -7t-0.5 -13
t10 -11l25 -14l-25 -15q-7 -4 -10 -11t0.5 -12.5t11 -6.5t14.5 3l25 14v-29q0 -8 4.5 -14t11.5 -6t11.5 6t4.5 14v29l25 -14q7 -4 14.5 -3t11 6.5t0.5 12.5t-10 11zM335 104l-26 15l26 14q7 5 10 12t-0.5 12.5t-11 6.5t-14.5 -3l-25 -15v29q0 9 -5 15t-11.5 6t-11 -6
t-4.5 -15v-29l-25 15q-8 4 -15.5 3t-10.5 -6.5t-0.5 -12.5t10.5 -12l25 -14l-25 -15q-7 -4 -10 -11t0 -12.5t10.5 -6.5t15.5 3l25 14v-29q0 -8 4.5 -14t11 -6t11.5 6t5 14v29l25 -14q7 -4 14.5 -3t11 6.5t0.5 12.5t-10 11zM799 104l-25 15l25 14q8 5 10.5 12t-0.5 12.5
t-10.5 6.5t-14.5 -3l-26 -15v29q0 9 -4.5 15t-11 6t-11 -6t-4.5 -15v-29l-25 15q-8 4 -15.5 3t-10.5 -6.5t-0.5 -12.5t10.5 -12l25 -14l-25 -15q-8 -4 -10.5 -11t0.5 -12.5t10.5 -6.5t15.5 3l25 14v-29q0 -8 4.5 -14t11 -6t11 6t4.5 14v29l26 -14q7 -4 14.5 -3t10.5 6.5
t0.5 12.5t-10.5 11z" />
    <glyph glyph-name="uniE633" unicode="&#xe633;" 
d="M921 507q-2 11 -7 29q-7 26 -21 49q-28 45 -73.5 72t-99.5 27q-12 21 -31 42q-16 18 -38 35q-33 26 -69 40q-23 9 -50 13q-26 5 -48 5q-97 0 -172 -61t-95 -156q-51 -17 -83.5 -61t-32.5 -100q0 -70 49.5 -119.5t119.5 -49.5q51 0 94 28q57 -28 120 -28q67 0 126 30
q49 -30 107 -30q81 0 140 54.5t65 133.5q1 11 1 18q0 13 -2 29zM865 462q-6 -56 -48.5 -94.5t-99.5 -38.5q-51 0 -91 31q-9 7 -21 5.5t-19 -10.5v-1q-48 -25 -102 -25q-57 0 -106 28q-13 7 -26 2q-7 -2 -13 -6q-30 -24 -69 -24q-46 0 -79 33t-33 79.5t33 79.5t79 33
q49 0 83 -36q8 -9 19.5 -9.5t20.5 7.5t9.5 20t-7.5 20q-47 51 -117 55q21 67 78 109t128 42q6 0 19 -1q24 -2 47 -9q43 -14 79 -46q17 -16 29 -31q-6 -1 -16 -5l-18 -9q-1 -1 -6.5 -3.5t-8.5 -3.5q-15 -10 -26 -19q-9 -8 -10 -19.5t7 -20.5t19.5 -10t20.5 7q5 4 16 11
q21 14 46 20q20 4 35 4q41 0 75.5 -20.5t53.5 -55.5q12 -20 16 -40q1 -1 1 -3v-4q3 -16 3 -26q0 -7 -1 -16zM576 11l-25 15l25 14q8 4 10.5 11t-0.5 13t-10.5 7t-15.5 -3l-25 -15v29q0 9 -4.5 14.5t-11 5.5t-11.5 -5.5t-5 -14.5v-29l-25 15q-7 4 -14.5 3t-11 -7t-0.5 -13
t10 -11l26 -14l-26 -15q-7 -4 -9.5 -11t0.5 -12.5t10.5 -6.5t14.5 3l25 14v-29q0 -8 5 -14t11.5 -6t11 6t4.5 14v29l25 -14q8 -4 15.5 -3t10.5 6.5t0.5 12.5t-10.5 11zM305 111l-26 14l26 15q7 4 10 11t-0.5 12.5t-11 6.5t-14.5 -3l-25 -14v29q0 8 -5 14t-11.5 6t-11 -6
t-4.5 -14v-29l-25 14q-8 4 -15.5 3t-10.5 -6.5t0 -12.5t10 -11l25 -15l-25 -14q-7 -5 -10 -12t0 -12.5t10.5 -6.5t15.5 3l25 15v-29q0 -9 4.5 -15t11 -6t11.5 6t5 15v29l25 -15q7 -4 14.5 -3t11 6.5t0.5 12.5t-10 12zM422 94l-14 8l14 9q10 6 5.5 14t-14.5 2l-15 -8v16
q0 12 -9 12t-9 -12v-16l-15 8q-10 6 -14.5 -2t5.5 -14l14 -8l-14 -9q-10 -6 -5.5 -14t14.5 -2l15 8v-16q0 -12 9 -12t9 12v16l15 -8q10 -6 14.5 2t-5.5 14zM683 94l-14 8l14 9q11 6 6 14t-15 2l-15 -8v16q0 12 -9 12t-9 -12v-16l-15 8q-10 6 -14.5 -2t5.5 -14l15 -8l-15 -9
q-10 -6 -5.5 -14t14.5 -2l15 8v-16q0 -12 9 -12t9 12v17l15 -9q10 -6 15 2t-6 14zM848 111l-25 14l25 15q7 4 10 11t-0.5 12.5t-11 6.5t-14.5 -3l-25 -14v29q0 8 -4.5 14t-11.5 6t-11.5 -6t-4.5 -14v-29l-25 14q-7 4 -14.5 3t-11 -6.5t-0.5 -12.5t10 -11l25 -15l-25 -14
q-7 -5 -10 -12t0.5 -12.5t11 -6.5t14.5 3l25 15v-29q0 -9 4.5 -15t11.5 -6t11.5 6t4.5 15v29l25 -15q7 -4 14.5 -3t11 6.5t0.5 12.5t-10 12z" />
    <glyph glyph-name="uniE634" unicode="&#xe634;" 
d="M921 485q-2 10 -7 28q-7 26 -21 49q-28 45 -73.5 72t-99.5 28q-12 20 -31 41q-16 18 -38 35q-33 26 -69 40q-23 9 -50 14q-26 4 -48 4q-97 0 -172 -61t-95 -155q-51 -18 -83.5 -62t-32.5 -99q0 -70 49.5 -120t119.5 -50q51 0 94 29q57 -29 120 -29q67 0 126 31
q49 -31 107 -31q81 0 140 54.5t65 134.5q1 10 1 18q0 12 -2 29zM865 440q-6 -57 -48.5 -95t-99.5 -38q-51 0 -91 31q-9 7 -21 5.5t-19 -11.5q-48 -25 -102 -25q-57 0 -106 28q-13 7 -26 1q-7 -1 -13 -6q-30 -23 -69 -23q-46 0 -79 32.5t-33 79t33 79.5t79 33q49 0 83 -36
q8 -9 19.5 -9.5t20.5 7.5t9.5 20t-7.5 21q-47 51 -117 54q21 67 78 109t128 42q6 0 19 -1q24 -2 47 -9q43 -14 78 -45q18 -16 30 -31q-6 -2 -16 -6l-18 -9q-1 0 -6.5 -2.5t-8.5 -4.5q-15 -9 -26 -19q-9 -7 -10 -19t7 -21t19.5 -10t20.5 7q6 4 16 11q21 14 46 20q20 5 35 5
q41 0 75.5 -21t53.5 -55q12 -21 16 -41q1 -1 1 -3v-3q3 -17 3 -26q0 -8 -1 -16zM323 132l-25 14l25 15q7 4 10 11t-0.5 12.5t-11 6.5t-14.5 -3l-25 -14v28q0 9 -5 15t-11.5 6t-11 -6t-4.5 -15v-28l-25 14q-7 4 -14.5 3t-11 -6.5t-0.5 -12.5t10 -11l25 -15l-25 -14
q-7 -5 -10 -12t0.5 -12.5t11 -6.5t14.5 3l25 15v-29q0 -9 4.5 -15t11 -6t11.5 6t5 15v29l25 -15q7 -4 14.5 -3t11 6.5t0.5 12.5t-10 12zM465 138l-15 8l15 8q10 6 5.5 14t-15.5 3l-14 -9v17q0 12 -9.5 12t-9.5 -12v-17l-14 9q-11 6 -15.5 -2.5t5.5 -14.5l15 -8l-15 -8
q-10 -6 -5.5 -14t15.5 -2l14 8v-17q0 -12 9.5 -12t9.5 12v17l14 -8q11 -6 15.5 2t-5.5 14zM385 8l-15 8l15 9q10 6 5.5 14t-14.5 2l-15 -9v17q0 12 -9 12t-9 -12v-17l-15 9q-10 6 -15 -2t6 -14l14 -9l-14 -8q-10 -6 -5.5 -14t14.5 -2l15 8v-17q0 -11 9 -11t9 11v17l15 -8
q10 -6 14.5 2t-5.5 14zM720 8l-15 8l15 9q10 6 5.5 14t-14.5 2l-15 -9v17q0 12 -9.5 12t-9.5 -12v-17l-14 9q-11 6 -15.5 -2t6.5 -14l14 -9l-14 -8q-11 -6 -6 -14t15 -2l14 8v-17q0 -11 9.5 -11t9.5 11v17l15 -8q10 -6 14.5 2t-5.5 14zM640 138l-14 8l14 8q11 6 6 14t-15 3
l-15 -9v17q0 12 -9 12t-9 -12v-17l-15 9q-10 6 -14.5 -2.5t5.5 -13.5l15 -9l-15 -8q-10 -6 -5.5 -14t14.5 -2l15 8v-17q0 -12 9 -12t9 12v17l15 -8q10 -6 15 2t-6 14zM824 132l-26 14l26 15q7 4 10 11t-0.5 12.5t-11 6.5t-14.5 -3l-25 -14v28q0 9 -5 15t-11.5 6t-11 -6
t-4.5 -15v-28l-25 14q-8 4 -15.5 3t-10.5 -6.5t0 -12.5t10 -11l25 -15l-25 -14q-7 -5 -10 -12t0 -12.5t10.5 -6.5t15.5 3l25 15v-29q0 -9 4.5 -15t11 -6t11.5 6t5 15v29l25 -15q7 -4 14.5 -3t11 6.5t0.5 12.5t-10 12z" />
    <glyph glyph-name="uniE635" unicode="&#xe635;" 
d="M565 10q0 -22 -15.5 -37.5t-37.5 -15.5t-37.5 15.5t-15.5 37.5q0 12 13.5 39t26.5 48t13 20q53 -78 53 -107zM293 90q0 -22 -15.5 -37.5t-37 -15.5t-37 15.5t-15.5 37.5q0 13 13 39.5t26 47.5l13 20q53 -78 53 -107zM836 90q0 -22 -15.5 -37.5t-37 -15.5t-37 15.5
t-15.5 37.5q0 12 13 39t26.5 48t13.5 20q52 -78 52 -107zM921 499q-2 11 -7 29q-7 25 -21 49q-28 44 -73.5 71t-99.5 28q-12 21 -31 42q-16 18 -38 35q-33 26 -69 40q-23 8 -50 13q-26 5 -48 5q-97 0 -172 -61t-95 -156q-51 -17 -83.5 -61t-32.5 -100q0 -70 49.5 -119.5
t119.5 -49.5q51 0 94 28q57 -28 120 -28q67 0 126 30q49 -30 107 -30q81 0 140 54.5t65 133.5q1 10 1 18q0 13 -2 29zM865 454q-6 -56 -48.5 -94.5t-99.5 -38.5q-51 0 -91 31q-9 7 -21 5.5t-19 -10.5v-1q-48 -25 -102 -25q-57 0 -106 28q-13 7 -26 1q-7 -1 -13 -5
q-30 -24 -69 -24q-46 0 -79 33t-33 79.5t33 79.5t79 33q49 0 83 -36q8 -9 19.5 -9.5t20.5 7.5t9.5 20t-7.5 20q-47 51 -117 55q21 67 78 109t128 42q6 0 19 -1q24 -2 47 -10q43 -13 79 -45q17 -16 29 -31q-6 -1 -16 -5l-18 -9q-1 -1 -6.5 -3.5t-8.5 -4.5q-15 -9 -26 -18
q-9 -8 -10 -19.5t7 -20.5t19.5 -10t20.5 6q6 5 16 12q21 13 46 19q20 5 35 5q41 0 75.5 -20.5t53.5 -55.5q12 -20 16 -40q1 -1 1 -3v-4q3 -16 3 -26q0 -7 -1 -16zM398 43l-15 8l15 8q10 6 5.5 14t-14.5 3l-15 -9v17q0 12 -9.5 12t-9.5 -12v-17l-14 9q-11 5 -15.5 -3t5.5 -14
l15 -8l-15 -8q-10 -6 -5.5 -14t15.5 -3l14 9v-17q0 -12 9.5 -12t9.5 12v17l15 -8q10 -6 14.5 2t-5.5 14zM683 43l-15 8l15 8q10 6 5.5 14t-14.5 3l-15 -9v17q0 12 -9 12t-9 -12v-17l-15 9q-10 5 -14.5 -3t5.5 -14l14 -8l-14 -8q-10 -6 -5.5 -14t14.5 -3l15 9v-17
q0 -12 9 -12t9 12v17l15 -8q10 -6 14.5 2t-5.5 14z" />
    <glyph glyph-name="uniE636" unicode="&#xe636;" 
d="M857 120q0 -47 -34 -81t-81.5 -34t-81.5 34t-34 81q0 60 111 229l4 7q13 -20 32 -50t51.5 -93.5t32.5 -92.5zM503 506l-71 41l71 41q20 11 28 31t-1 36t-30 19t-42 -9l-70 -41v82q0 23 -13.5 40t-32 17t-31.5 -17t-13 -40v-82l-71 41q-20 12 -41 9t-30.5 -19t-1.5 -36
t29 -31l71 -41l-71 -41q-21 -12 -29 -31.5t1.5 -35.5t30.5 -19t41 8l71 41v-81q0 -24 13 -40.5t31.5 -16.5t32 16.5t13.5 40.5v81l70 -41q21 -11 42 -8t30 19t1 35.5t-28 31.5zM282 40q-13 -14 -26.5 -19.5t-18.5 0.5q-6 6 -0.5 19t18.5 27l570 569q13 13 26.5 18.5
t18.5 0.5q6 -6 0.5 -19.5t-18.5 -26.5z" />
    <glyph glyph-name="uniE637" unicode="&#xe637;" 
d="M345 16q0 -19 -13.5 -32.5t-32.5 -13.5t-32.5 13.5t-13.5 32.5q0 11 11.5 34.5t22.5 41.5l12 18q46 -69 46 -94zM629 22l-22 13l22 13q6 3 8.5 9.5t-0.5 11.5q-7 12 -22 3l-22 -13v25q0 8 -4 13t-10 5t-10 -5t-4 -13v-25l-22 13q-15 9 -22 -3q-3 -5 -0.5 -11.5t8.5 -9.5
l22 -13l-22 -13q-6 -3 -8.5 -9.5t0.5 -11.5q7 -12 22 -3l22 13v-26q0 -7 4 -12t10 -5t10 5t4 12v26l22 -13q15 -9 22 3q3 5 0.5 11.5t-8.5 9.5zM938 537h-44q-9 0 -15.5 -6.5t-6.5 -15.5t6.5 -15.5t15.5 -6.5h44q9 0 15.5 6.5t6.5 15.5t-6.5 15.5t-15.5 6.5zM505 655
q6 -7 15 -7t15.5 6.5t6.5 15.5t-6 16l-31 31q-7 6 -16 6t-15.5 -6.5t-6.5 -15.5t7 -15zM846 655l31 31q6 6 6 15t-6.5 15.5t-15.5 6.5t-15 -6l-31 -31q-7 -7 -7 -16t6.5 -15.5t15.5 -6.5t16 7zM675 713q9 0 15.5 6t6.5 15v44q0 9 -6.5 15.5t-15.5 6.5t-15.5 -6.5t-6.5 -15.5
v-44q0 -9 6.5 -15t15.5 -6zM846 376q-7 6 -16 6t-15.5 -6.5t-6.5 -15.5t7 -15l31 -31q6 -7 15 -7t15.5 6.5t6.5 15.5t-6 16zM675 625q45 0 77.5 -32t32.5 -78q0 -40 -28 -72q12 -20 19 -42q52 46 52 114q0 64 -44.5 109t-108.5 45q-40 0 -74 -19.5t-55 -52.5q19 -14 33 -30
q14 26 39.5 42t56.5 16zM776 401q-21 -19 -45 -28q3 -14 3 -23q0 -7 -1 -14q-5 -49 -42 -82.5t-88 -33.5q-44 0 -79 27q-8 6 -18.5 5t-16.5 -10h-1q-41 -22 -88 -22q-50 0 -94 24q-10 6 -22 1q-6 -1 -11 -4q-27 -21 -61 -21q-40 0 -69 28.5t-29 69.5t29 69.5t69 28.5
q43 0 72 -31q7 -8 17.5 -8.5t18 6.5t8 17.5t-6.5 17.5q-41 45 -102 48q19 59 68.5 95.5t112.5 36.5q4 0 16 -1q21 -1 41 -8q38 -12 69 -39q6 25 20 47q-30 23 -61 35q-21 8 -44 12t-41 4q-86 0 -151.5 -53t-82.5 -137q-45 -14 -73.5 -53t-28.5 -87q0 -61 43.5 -104.5
t104.5 -43.5q45 0 82 24q50 -24 106 -24q58 0 109 26q43 -26 94 -26q71 0 122.5 47.5t57.5 116.5q1 9 1 16q0 11 -2 25q-2 10 -6 26zM486 487q-8 -6 -8.5 -16.5t6 -18.5t17 -8.5t18.5 5.5q4 3 14 10q-10 24 -11 51q-1 -1 -6 -3t-7 -4q-13 -8 -23 -16zM717 414q23 9 40 29
q-24 40 -64 63.5t-87 23.5q-11 19 -27 37q-13 -25 -13 -52q0 -19 7 -39q17 5 30 5q36 -1 66 -19t48 -48zM551 523q-5 -2 -13 -5q-1 -1 -16 -8q1 -27 11 -51q18 12 40 17q-7 20 -7 39q0 27 13 52q-14 16 -33 30q-14 -22 -20 -47q15 -14 25 -27zM717 414q10 -18 14 -35v-3v-3
q24 9 45 28q-7 22 -19 42q-17 -20 -40 -29z" />
    <glyph glyph-name="uniE638" unicode="&#xe638;" 
d="M938 475h-44q-9 0 -15.5 -6.5t-6.5 -15.5t6.5 -15.5t15.5 -6.5h44q9 0 15.5 6.5t6.5 15.5t-6.5 15.5t-15.5 6.5zM505 593q6 -7 15 -7t15.5 6.5t6.5 15.5t-6 16l-31 31q-7 6 -16 6t-15.5 -6.5t-6.5 -15.5t7 -15zM846 593l31 31q6 6 6 15t-6.5 15.5t-15.5 6.5t-15 -6
l-31 -31q-7 -7 -7 -16t6.5 -15.5t15.5 -6.5t16 7zM675 650q9 0 15.5 6.5t6.5 15.5v44q0 9 -6.5 15.5t-15.5 6.5t-15.5 -6.5t-6.5 -15.5v-44q0 -9 6.5 -15.5t15.5 -6.5zM846 314q-7 6 -16 6t-15.5 -6.5t-6.5 -15.5t7 -15l31 -31q6 -7 15 -7t15.5 6.5t6.5 15.5t-6 16zM675 563
q45 0 77.5 -32t32.5 -78q0 -40 -28 -72q12 -20 19 -43q52 47 52 115q0 64 -44.5 109t-108.5 45q-40 0 -74 -19.5t-55 -52.5q19 -14 33 -30q14 26 39.5 42t56.5 16zM486 425q-8 -7 -8.5 -17t6 -18t17 -9t18.5 6q4 3 14 10q-10 24 -11 51q-1 -1 -6 -3t-7 -4q-13 -8 -23 -16z
M717 352q23 9 40 29q-24 39 -64 63t-87 24q-11 19 -27 37q-13 -25 -13 -52q0 -19 7 -39q17 4 30 4q36 0 66 -18t48 -48zM551 460q-5 -1 -13 -4l-16 -8q1 -27 11 -51q18 12 40 17q-7 20 -7 39q0 27 13 52q-14 16 -33 30q-14 -22 -20 -48q15 -13 25 -27zM717 352
q10 -18 14 -35v-3v-3q24 9 45 27q-7 23 -19 43q-17 -20 -40 -29zM323 173q-6 2 -7.5 3t-3 2.5t-6.5 3.5q-10 6 -22 1q-6 -1 -11 -5q-27 -20 -61 -20q-40 0 -69 28.5t-29 69t29 69.5t69 29q43 0 72 -32q7 -7 17.5 -7.5t18 6.5t8 17.5t-6.5 17.5q-41 45 -102 48
q19 59 68.5 95.5t112.5 36.5q4 0 16 -1q21 -2 41 -8q38 -12 69 -40q6 26 20 48q-30 23 -61 35q-21 8 -44 12t-41 4q-86 0 -151.5 -53t-82.5 -137q-45 -14 -73.5 -53t-28.5 -87q0 -61 43.5 -104.5t104.5 -43.5q45 0 82 24q12 -6 15 -7zM782 313q-1 9 -6 25q-21 -18 -45 -27
q3 -14 3 -23q0 -7 -1 -14q-5 -49 -42 -82.5t-88 -33.5q-44 0 -79 27q-8 6 -18.5 4.5t-16.5 -9.5h-1q-6 -4 -14 -6l17 -48q6 2 18 8q44 -26 95 -26q70 0 121.5 47.5t57.5 116.5q1 9 1 16q0 11 -2 25zM456 93l-26 15l26 14q7 5 10 12t-0.5 12.5t-11 6.5t-14.5 -3l-26 -15v30
q0 8 -4.5 14t-11.5 6t-11.5 -6t-4.5 -14v-30l-25 15q-8 4 -15.5 3t-10.5 -6.5t-0.5 -12.5t10.5 -12l25 -14l-25 -15q-8 -4 -10.5 -11t0.5 -13t10.5 -7t15.5 3l25 15v-30q0 -8 4.5 -14t11.5 -6t11.5 6t4.5 14v30l26 -15q7 -4 14.5 -3t11 7t0.5 13t-10 11z" />
    <glyph glyph-name="uniE639" unicode="&#xe639;" 
d="M533 518q0 -12 -8.5 -20.5t-19.5 -8.5h-412q-12 0 -20.5 8.5t-8.5 20.5t8.5 20.5t20.5 8.5h412q12 0 20 -8.5t8 -20.5zM960 384q0 -12 -8.5 -20.5t-20.5 -8.5h-753q-12 0 -20.5 8.5t-8.5 20.5t8.5 20.5t20.5 8.5h753q12 0 20.5 -8.5t8.5 -20.5zM832 250q0 -12 -8.5 -20.5
t-20.5 -8.5h-710q-12 0 -20.5 8.5t-8.5 20.5t8.5 20.5t20.5 8.5h710q12 0 20.5 -8.5t8.5 -20.5zM512 121q-109 0 -186 77t-77 186t77 186t186 77t186 -77t77 -186t-77 -186t-186 -77zM512 591q-85 0 -146 -61t-61 -146t61 -146t146 -61t146 61t61 146t-61 146t-146 61z" />
    <glyph glyph-name="uniE63A" unicode="&#xe63a;" 
d="M960 665q0 -16 -12 -28t-28 -12h-816q-16 0 -28 12t-12 28q0 17 12 29t28 12h816q16 0 28 -12t12 -29zM960 478q0 -17 -12 -28.5t-28 -11.5h-816q-16 0 -28 11.5t-12 28.5q0 16 12 28t28 12h816q16 0 28 -12t12 -28zM960 290q0 -16 -12 -28t-28 -12h-816q-16 0 -28 12
t-12 28q0 17 12 28.5t28 11.5h816q16 0 28 -11.5t12 -28.5zM960 103q0 -17 -12 -29t-28 -12h-816q-16 0 -28 12t-12 29q0 16 12 28t28 12h816q16 0 28 -12t12 -28z" />
    <glyph glyph-name="uniE63B" unicode="&#xe63b;" 
d="M303 203q-99 0 -169 53t-70 128t70 128t169 53t169 -53t70 -128t-70 -128t-169 -53zM303 505q-73 0 -126 -36t-53 -85t53 -85t126 -36t126 36t53 85t-53 85t-126 36zM721 203q-99 0 -169 53t-70 128t70 128t169 53t169 -53t70 -128t-70 -128t-169 -53zM721 505
q-73 0 -126 -36t-53 -85t53 -85t126 -36t126 36t53 85t-53 85t-126 36z" />
    <glyph glyph-name="uniE63C" unicode="&#xe63c;" 
d="M960 562q0 83 -97 149t-252 93q93 -36 146 -88.5t53 -112.5q0 -68 -80 -128q-12 -9 -21 -15q-81 -52 -206 -83.5t-261 -31.5q-90 0 -178 16q144 -56 328 -56q218 0 388 73q7 -19 7 -35q0 -44 -44 -85q-12 -11 -26 -21q-62 -43 -163 -69.5t-212 -26.5q-70 0 -139 12
q113 -43 256 -43q163 0 294 53v-1q0 -71 -97 -121t-241 -50q-60 0 -118 10q95 -37 217 -37q144 0 241 50t97 121q0 33 -27 65q80 51 80 111q0 55 -58 102q113 68 113 149zM213 673q-14 0 -23.5 -9.5t-9.5 -22.5t9.5 -22.5t23.5 -9.5v64zM135 515q-14 0 -23.5 -9t-9.5 -22.5
t9.5 -23t23.5 -9.5v64zM383 592q-13 0 -23 -9.5t-10 -23t10 -22.5t23 -9v64zM573 510q-14 0 -23.5 -9t-9.5 -22.5t9.5 -23t23.5 -9.5v64zM305 434q-13 0 -23 -9.5t-10 -22.5t10 -22.5t23 -9.5v64zM347 225q-14 0 -23.5 -9t-9.5 -22.5t9.5 -23t23.5 -9.5v64zM526 225
q-14 0 -23.5 -9t-9.5 -22.5t9.5 -23t23.5 -9.5v64zM442 63q-13 0 -23 -9.5t-10 -22.5t10 -22.5t23 -9.5v64zM463 740q-13 0 -23 -9.5t-10 -22.5t10 -22.5t23 -9.5v64z" />
    <glyph glyph-name="uniE63D" unicode="&#xe63d;" 
d="M960 109q0 -14 -12 -24.5t-28 -10.5h-816q-16 0 -28 10.5t-12 24.5q0 15 12 25.5t28 10.5h816q16 0 28 -10.5t12 -25.5zM225 636zM168 636q0 24 16.5 41t40.5 17t41 -17t17 -41t-17 -40.5t-41 -16.5t-40.5 16.5t-16.5 40.5zM225 406zM168 406q0 24 16.5 40.5t40.5 16.5
t41 -16.5t17 -40.5t-17 -41t-41 -17t-40.5 17t-16.5 41zM799 636zM741 636q0 24 17 41t41 17t40.5 -17t16.5 -41t-16.5 -40.5t-40.5 -16.5t-41 16.5t-17 40.5zM799 406zM741 406q0 24 17 40.5t41 16.5t40.5 -16.5t16.5 -40.5t-16.5 -41t-40.5 -17t-41 17t-17 41zM519 548z
M462 548.5q0 23.5 16.5 40.5t40.5 17t41 -17t17 -40.5t-17 -40.5t-41 -17t-40.5 17t-16.5 40.5zM519 318zM462 318q0 24 16.5 41t40.5 17t41 -17t17 -41t-17 -41t-41 -17t-40.5 17t-16.5 41z" />
    <glyph glyph-name="uniE63E" unicode="&#xe63e;" 
d="M722 200q0 -15 -12 -25t-29 -10h-566q-16 0 -28 10t-12 25t12 25.5t28 10.5h566q17 0 29 -10.5t12 -25.5zM910 384q0 -15 -11.5 -25.5t-28.5 -10.5h-765q-17 0 -29 10.5t-12 25.5t12 25.5t29 10.5h765q17 0 28.5 -10.5t11.5 -25.5zM598 568q0 -15 -12 -25.5t-29 -10.5
h-436q-17 0 -29 10.5t-12 25.5t12 25t29 10h436q17 0 29 -10t12 -25zM559 621zM470 621q0 37 26 63t63 26t63 -26t26 -63t-26 -63t-63 -26t-63 26t-26 63zM871 437zM782 437.5q0 36.5 26 62.5t63 26t63 -26t26 -62.5t-26 -63t-63 -26.5t-63 26.5t-26 63zM693 147zM604 147
q0 37 26 63t63 26t63 -26t26 -63t-26 -63t-63 -26t-63 26t-26 63z" />
    <glyph glyph-name="uniE63F" unicode="&#xe63f;" 
d="M172 803.5q0 -11.5 8 -19.5t19.5 -8t19.5 8t8 19.5t-8 19.5t-19.5 8t-19.5 -8t-8 -19.5zM200 775h-3q-12 1 -19.5 10.5t-6.5 20.5t9.5 18.5t18.5 7.5h3q12 -1 19.5 -10.5t6.5 -20.5t-9 -18.5t-19 -7.5zM199 831q-10 0 -17.5 -7t-8.5 -18t6 -19.5t18 -9.5h3q10 0 17.5 7
t8.5 17q1 11 -6 19.5t-18 9.5q-2 1 -3 1zM677 803.5q0 -11.5 8 -19.5t19.5 -8t20 8t8.5 19.5t-8.5 19.5t-20 8t-19.5 -8t-8 -19.5zM705 775h-3q-12 1 -19.5 10.5t-5.5 20.5q1 11 9 18.5t19 7.5h3q11 -1 18.5 -10.5t6.5 -20.5t-9 -18.5t-19 -7.5zM705 831q-11 0 -18.5 -7
t-8.5 -18t6 -19.5t18 -9.5h2h1q10 0 18 7t9 17q1 11 -6 19.5t-18 9.5h-2zM858 651.5q0 -11.5 8 -19.5t19.5 -8t19.5 8t8 19.5t-8 19.5t-19.5 8t-19.5 -8t-8 -19.5zM885 623h-3q-11 1 -18.5 10.5t-6.5 20.5t9 18.5t19 7.5h3q12 -1 19.5 -10.5t5.5 -20.5q-1 -11 -9 -18.5
t-19 -7.5zM885 678q-10 0 -18 -6.5t-9 -17.5t6 -19.5t18 -9.5h3q11 0 18.5 6.5t8.5 17.5t-6 19.5t-18 9.5h-2h-1zM111 695.5q0 -11.5 8 -19.5t19.5 -8t19.5 8t8 19.5t-8 19.5t-19.5 8t-19.5 -8t-8 -19.5zM139 667h-3q-12 2 -19.5 11t-6.5 20q2 11 10 18.5t19 7.5h3
q11 -1 18.5 -10.5t6.5 -20.5t-9 -18.5t-19 -7.5zM139 723q-11 0 -18.5 -7t-8.5 -18t6 -19.5t18 -9.5h3q10 0 18 7t9 17q1 11 -6 19.5t-18 9.5q-1 1 -3 1zM502 751q0 -11 8 -19.5t19.5 -8.5t19.5 8.5t8 19.5t-8 19.5t-19.5 8.5t-19.5 -8.5t-8 -19.5zM529 723h-2
q-12 1 -19.5 10t-6.5 21q1 11 9 18t19 7h3q12 -1 19.5 -10t6.5 -21q-1 -11 -9.5 -18t-19.5 -7zM529 778q-10 0 -17.5 -7t-8.5 -17q-2 -11 5 -20t19 -10h2q11 0 18.5 7t8.5 17q1 11 -6 20t-18 10h-3zM392 526q-12 0 -20 8.5t-8 20.5t8 20t20 8t20 -8t8 -20t-8 -20.5t-20 -8.5
zM392 582q-11 0 -19 -8t-8 -19t8 -19t19 -8t19 8t8 19t-8 19t-19 8zM478 389q-9 0 -15 6t-6 15t6 15t15 6q81 0 137 20q18 7 29 13.5t14 11t3 7t-3 7t-14 11t-29 13.5q-56 20 -137 20q-9 0 -15 6t-6 15t6 15t15 6q88 0 152 -22q74 -26 74 -71.5t-74 -71.5q-64 -22 -152 -22z
M469 389q-141 0 -242 41q-53 21 -81.5 50.5t-28.5 63.5t28.5 63.5t81.5 51.5q101 41 242 41t242 -41q53 -22 81.5 -51.5t28.5 -63.5t-28.5 -63.5t-81.5 -50.5q-101 -41 -242 -41zM469 657q-133 0 -225 -38q-40 -16 -62 -36t-22 -39t22 -39t62 -36q92 -38 225 -38t226 38
q39 16 61 36t22 39.5t-22 39t-61 35.5q-93 38 -226 38zM469 -64q-63 0 -109 24q-52 27 -52 70q0 8 6 14.5t15 6.5t15 -6.5t6 -14.5q0 -17 30 -33q36 -18 89 -18t89 18q30 16 30 33q0 8 6 14.5t15 6.5t15.5 -6.5t6.5 -14.5q0 -43 -53 -70q-46 -24 -109 -24zM469 79
q-89 0 -152 26q-74 30 -74 79q0 9 6.5 15t15.5 6t15 -6t6 -15t12.5 -20t34.5 -19q56 -23 136 -23t136 23q22 8 34.5 19t12.5 20t6 15t15 6t15.5 -6t6.5 -15q0 -49 -74 -79q-63 -26 -152 -26zM469 223q-103 0 -176 30q-83 33 -83 88q0 9 6 15t15 6t15 -6t6 -15
q0 -12 15.5 -25t41.5 -24q66 -26 160 -26t160 26q26 11 41.5 24t15.5 25q0 9 6 15t15 6t15 -6t6 -15q0 -54 -83 -88q-73 -30 -176 -30z" />
    <glyph glyph-name="uniE640" unicode="&#xe640;" 
d="M520.5 -64q-86.5 0 -148 61.5t-61.5 148.5q0 53 25.5 99.5t70.5 75.5v398q0 47 33.5 80t80 33t79.5 -33t33 -80v-398q45 -29 71 -75.5t26 -99.5q0 -87 -61.5 -148.5t-148 -61.5zM520.5 800q-33.5 0 -57 -24t-23.5 -57v-416l-8 -5q-42 -24 -65.5 -64.5t-23.5 -87.5
q0 -74 52 -126t125.5 -52t125.5 52t52 126q0 47 -23.5 87.5t-65.5 64.5l-8 5v416q0 33 -23.5 57t-57 24zM308 735q-6 0 -10 -4t-4 -10t4 -10t10 -4h83v28h-83zM308 506q-6 0 -10 -4.5t-4 -10t4 -10t10 -4.5h83v29h-83zM327 678q-5 0 -9.5 -4t-4.5 -10t4.5 -10.5t9.5 -4.5h64
v29h-64zM327 621q-5 0 -9.5 -4.5t-4.5 -10.5t4.5 -10t9.5 -4h64v29h-64zM327 563q-5 0 -9.5 -4t-4.5 -10t4.5 -10t9.5 -4h64v28h-64zM610 700h-180v54q7 7 18.5 17.5t35.5 27.5t36 17t34.5 -15.5t39.5 -30.5l16 -16v-54z" />
    <glyph glyph-name="uniE641" unicode="&#xe641;" 
d="M520.5 -64q-86.5 0 -148 61.5t-61.5 148.5q0 53 25.5 99.5t70.5 75.5v398q0 47 33.5 80t80 33t79.5 -33t33 -80v-398q45 -28 71 -75t26 -100q0 -87 -61.5 -148.5t-148 -61.5zM520.5 800q-33.5 0 -57 -24t-23.5 -57v-416l-8 -5q-42 -24 -65.5 -64.5t-23.5 -87.5
q0 -74 52 -126t125.5 -52t125.5 52t52 126q0 47 -23.5 87.5t-65.5 64.5l-8 5v416q0 33 -23.5 57t-57 24zM308 735q-6 0 -10 -4t-4 -10t4 -10t10 -4h83v28h-83zM308 506q-6 0 -10 -4.5t-4 -10t4 -10t10 -4.5h83v29h-83zM327 678q-5 0 -9.5 -4t-4.5 -10t4.5 -10.5t9.5 -4.5h64
v29h-64zM327 621q-5 0 -9.5 -4.5t-4.5 -10.5t4.5 -10t9.5 -4h64v29h-64zM327 563q-5 0 -9.5 -4t-4.5 -10t4.5 -10t9.5 -4h64v28h-64zM610 524h-180v230q7 7 18.5 17t35.5 27.5t36 17.5t34.5 -15.5t39.5 -31.5l16 -15v-230z" />
    <glyph glyph-name="uniE642" unicode="&#xe642;" 
d="M161 392l-31 62h-3l9 -62v-203h-72v393h56l147 -208l30 -60h2l-9 60v205h73v-393h-56zM849 275h-120l-29 -86h-77l141 393h56l140 -393h-80zM749 337h83l-29 86l-12 62h-2l-12 -62zM582 582l-175 -396h66l175 396h-66z" />
    <glyph glyph-name="uniE649" unicode="&#xe649;" 
d="M160 832h-96v-896h896v96h-800v800zM331 192q31 0 53 23t22 55q0 23 -12 43l131 155q3 -1 6 -1t7 1l95 -155q-12 -20 -12 -43q0 -32 22 -55t53 -23t53 23t22 55q0 24 -13 44l122 202h5q31 0 53 23t22 55t-22 55t-53 23t-53 -23t-22 -55q0 -24 13 -44l-122 -202h-5h-7
l-95 155q12 19 12 42q0 33 -22 55.5t-53 22.5t-52.5 -22.5t-21.5 -55.5q0 -23 12 -42l-131 -155h-7q-31 0 -53 -23t-22 -55t22 -55t53 -23z" />
    <glyph glyph-name="uniE64A" unicode="&#xe64a;" 
d="M416 848h-288q-26 0 -45 -19t-19 -45v-288q0 -27 19 -45.5t45 -18.5h288q27 0 45.5 18.5t18.5 45.5v288q0 26 -18.5 45t-45.5 19zM896 848h-288q-27 0 -45.5 -19t-18.5 -45v-288q0 -27 18.5 -45.5t45.5 -18.5h288q26 0 45 18.5t19 45.5v288q0 26 -19 45t-45 19zM416 368
h-288q-26 0 -45 -18.5t-19 -45.5v-320q0 -26 19 -45t45 -19h288q27 0 45.5 19t18.5 45v320q0 27 -18.5 45.5t-45.5 18.5zM896 368h-288q-27 0 -45.5 -18.5t-18.5 -45.5v-320q0 -26 18.5 -45t45.5 -19h288q26 0 45 19t19 45v320q0 27 -19 45.5t-45 18.5z" />
    <glyph glyph-name="uniE64B" unicode="&#xe64b;" 
d="M960 347q0 104 -48.5 193.5t-131.5 146.5q4 15 4 27q0 49 -34.5 83.5t-83.5 34.5q-36 0 -65.5 -20.5t-43.5 -53.5h-4h-4q-111 0 -205 -54t-149.5 -147t-56.5 -204q-33 -13 -53.5 -42.5t-20.5 -65.5q0 -49 34.5 -83.5t83.5 -34.5q7 0 19 2q55 -88 147.5 -140.5
t200.5 -52.5q81 0 156 31q34 -31 79 -31q48 0 82.5 34.5t34.5 83.5q0 30 -16 58q75 106 75 235zM843 154q-28 17 -59 17q-49 0 -83.5 -34.5t-34.5 -82.5q0 -17 6 -36q-60 -23 -123 -23q-91 0 -168.5 42.5t-125.5 115.5q44 36 44 92q0 44 -29.5 77t-72.5 38q3 93 51 171
t127.5 123.5t173.5 45.5h1q6 -44 39 -73.5t77 -29.5q51 0 86 38q69 -49 109 -124.5t40 -163.5q0 -105 -58 -193z" />
    <glyph glyph-name="uniE64C" unicode="&#xe64c;" 
d="M672 832h-480q-13 0 -23.5 -2t-17.5 -4.5t-11.5 -8.5t-7 -10t-3.5 -14.5t-1 -16.5v-19v-21v-704v-24v-20q0 -6 0.5 -16t2 -13t4.5 -8.5t7.5 -7t11.5 -4t16.5 -3t21.5 -0.5h608q34 0 52.5 4t28.5 16t12.5 28t2.5 48v576q-52 51 -73.5 77t-46.5 52t-104 95zM832 64
q0 -44 -9 -54t-55 -10h-512q-23 0 -32 1t-18 7.5t-11.5 19t-2.5 36.5v640v4q0 49 4 57t26 5q20 -2 34 -2h384v-128q0 -50 23 -73t73 -23h96v-480zM320 384h416v64h-416v-64zM320 224h416v64h-416v-64z" />
    <glyph glyph-name="uniE64D" unicode="&#xe64d;" 
d="M690 637l-28 16l-31 -90h30zM617 383l-112 449l-101 -453q-11 -24 -11 -52v0q0 -33 15 -61q25 -44 73 -57t90 12q29 17 44.5 45t15.5 61v1q0 29 -14 55zM512 235q-37 0 -63.5 27t-26.5 65t26.5 64.5t63.5 26.5t63.5 -26.5t26.5 -64.5t-26.5 -65t-63.5 -27zM594 764
l-12 -59q125 -24 206.5 -123t81.5 -228q0 -97 -48 -179.5t-130.5 -130.5t-179.5 -48t-179.5 48t-130.5 130.5t-48 179.5q0 129 81.5 228t206.5 123l-12 59q-145 -29 -240.5 -144t-95.5 -266q0 -114 56 -210t152 -152t210 -56t210 56t152 152t56 210q0 151 -95.5 266
t-240.5 144zM721 503v-30l84 42l-17 27zM184 354h89v30h-89v-30zM840 354v30h-89v-30h89zM363 563h30l-31 90l-28 -16zM321 495l-85 47l-17 -27l86 -48zM512 388q-25 0 -42.5 -18t-17.5 -43.5t17.5 -43.5t42.5 -18t42.5 18t17.5 43.5t-17.5 43.5t-42.5 18z" />
    <glyph glyph-name="uniE64E" unicode="&#xe64e;" 
d="M950 434l-122 112l-1 1v137q0 8 -5.5 13.5t-13.5 5.5h-82q-8 0 -13.5 -5.5t-5.5 -13.5v-36l-5 5l-151 134l-2 1q-16 14 -37 14q-22 0 -39 -15h-1l-398 -353q-8 -6 -9.5 -17.5t4 -21t15.5 -11.5t18 5l398 353q5 4 12 4t12 -4l398 -353q8 -6 18 -4.5t15.5 11t4 21
t-9.5 17.5zM544 625q-15 12 -32 12t-32 -12l-276 -248q-10 -9 -10 -23v-328q0 -25 17.5 -42.5t42.5 -17.5h157v204q0 31 18.5 53t44.5 22h66q26 0 45 -22t19 -53v-204h166q25 0 42.5 17.5t17.5 42.5v328q0 14 -10 23z" />
  </font>
</defs>
</svg>
